<svg width="500" height="500" viewBox="0 0 500 500" fill="none" xmlns="http://www.w3.org/2000/svg">
<g clip-path="url(#clip0_3010_2307)">
<path d="M500 0H0V500H500V0Z" fill="white"/>
<path d="M476.167 395.504C476.167 410.013 377.913 421.775 256.71 421.775C135.507 421.775 37.2532 410.013 37.2532 395.504C37.2532 380.995 135.507 369.234 256.71 369.234C377.913 369.234 476.167 380.996 476.167 395.504Z" fill="#D9E4F5"/>
<path d="M140.767 86.0489C140.767 87.0859 140.344 88.0319 139.656 88.7159C138.976 89.4049 138.03 89.8279 136.993 89.8279H56.2101C54.1351 89.8279 52.4351 88.1279 52.4351 86.0489C52.4351 85.0109 52.8581 84.0659 53.5461 83.3819C54.2261 82.6929 55.1721 82.2699 56.2091 82.2699H60.0271C61.5351 78.7659 65.0181 76.3169 69.0711 76.3169C71.7991 76.3169 74.2661 77.4279 76.0531 79.2199C78.4331 75.1839 82.8221 72.4729 87.8471 72.4729C89.2291 72.4729 90.5581 72.6819 91.8131 73.0609C94.4411 68.1179 99.6371 64.7539 105.625 64.7539C112.817 64.7539 118.867 69.6099 120.693 76.2169C122.018 75.5549 123.513 75.1749 125.099 75.1749C129.584 75.1749 133.367 78.1689 134.557 82.2709H136.989C139.067 82.2699 140.767 83.9699 140.767 86.0489Z" fill="#D9E4F5"/>
<path d="M419.627 92.8361C419.627 93.8731 419.204 94.8191 418.516 95.5041C417.836 96.1931 416.89 96.6151 415.853 96.6151H335.07C332.995 96.6151 331.295 94.9151 331.295 92.8361C331.295 91.7991 331.718 90.8531 332.406 90.1691C333.086 89.4801 334.032 89.0571 335.069 89.0571H338.887C340.395 85.5531 343.878 83.1031 347.931 83.1031C350.659 83.1031 353.126 84.2141 354.914 86.0061C357.294 81.9701 361.683 79.2591 366.708 79.2591C368.09 79.2591 369.419 79.4681 370.674 79.8471C373.302 74.9051 378.498 71.5391 384.486 71.5391C391.678 71.5391 397.728 76.3951 399.554 83.0021C400.879 82.3391 402.374 81.9601 403.961 81.9601C408.446 81.9601 412.229 84.9541 413.419 89.0561H415.851C417.927 89.0571 419.627 90.7571 419.627 92.8361Z" fill="#D9E4F5"/>
<path d="M280.249 108.414C280.249 109.451 279.826 110.397 279.138 111.082C278.458 111.771 277.512 112.193 276.475 112.193H195.693C193.618 112.193 191.918 110.493 191.918 108.414C191.918 107.377 192.341 106.431 193.03 105.747C193.71 105.058 194.656 104.635 195.693 104.635H199.511C201.019 101.131 204.502 98.6812 208.555 98.6812C211.283 98.6812 213.75 99.7922 215.538 101.584C217.918 97.5482 222.307 94.8372 227.332 94.8372C228.714 94.8372 230.043 95.0462 231.298 95.4252C233.926 90.4822 239.122 87.1172 245.111 87.1172C252.303 87.1172 258.353 91.9732 260.179 98.5802C261.504 97.9172 262.999 97.5382 264.586 97.5382C269.071 97.5382 272.854 100.532 274.044 104.634H276.476C278.549 104.635 280.249 106.335 280.249 108.414Z" fill="#D9E4F5"/>
<path d="M453.814 283.626C445.28 297.123 457.78 295.286 451.572 305.426C445.913 314.669 433.376 309.742 438.275 328.095C439.347 332.11 437.077 335.78 433.288 338.252C427.054 342.318 419.869 341.478 414.719 337.747C414.301 337.447 413.896 337.125 413.507 336.784C409.438 333.239 407.005 327.74 408.024 321.516C408.851 316.466 411.138 311.165 416.6 308.027C429.415 300.663 417.654 284.143 429.117 280.717C442.94 276.584 442.282 271.321 450.682 262.131C459.585 252.389 465.38 265.334 453.814 283.626Z" fill="#C7D9ED"/>
<path d="M447.518 278.723C447.282 279.11 427.676 311.209 414.72 337.748C414.302 337.448 413.897 337.126 413.508 336.785C426.51 310.222 445.993 278.32 446.231 277.933C446.449 277.577 446.914 277.466 447.27 277.684C447.624 277.902 447.735 278.367 447.518 278.723Z" fill="#B4CAE3"/>
<path d="M464.934 319.755C449.965 333.808 466.115 335.546 455.123 346.17C445.102 355.853 431.083 345.683 431.271 370.105C431.312 375.447 427.304 379.285 421.793 381.142C412.724 384.196 404.05 380.836 398.841 374.534C398.417 374.026 398.016 373.495 397.642 372.945C393.718 367.222 392.461 359.594 395.734 352.174C398.389 346.154 402.943 340.293 410.752 338.145C429.075 333.105 419.756 308.755 435.127 308.181C453.665 307.488 454.541 300.725 467.956 291.99C482.176 282.731 485.221 300.711 464.934 319.755Z" fill="#D9E4F5"/>
<path d="M458.675 311.625C458.256 312.03 423.514 345.673 398.841 374.536C398.417 374.028 398.016 373.497 397.642 372.947C422.381 344.069 456.905 310.633 457.326 310.228C457.712 309.855 458.327 309.866 458.7 310.252C459.072 310.637 459.061 311.252 458.675 311.625Z" fill="#C7D9ED"/>
<path d="M56.4201 170.636C65.7101 183.625 53.1261 182.503 59.9021 192.273C66.0791 201.178 78.3151 195.543 74.4701 214.146C73.6291 218.215 76.1051 221.75 80.0281 224.002C86.4831 227.706 93.6091 226.457 98.5381 222.439C98.9381 222.116 99.3251 221.771 99.6941 221.409C103.554 217.638 105.67 212.009 104.296 205.853C103.182 200.858 100.597 195.697 94.9651 192.875C81.7511 186.254 92.5501 169.09 80.9101 166.324C66.8741 162.986 67.2301 157.694 58.3201 148.999C48.8761 139.78 43.8291 153.034 56.4201 170.636Z" fill="#C7D9ED"/>
<path d="M62.4262 165.38C62.6842 165.753 84.0902 196.681 98.5392 222.437C98.9392 222.114 99.3262 221.769 99.6952 221.407C85.1982 195.629 63.9272 164.891 63.6682 164.518C63.4302 164.175 62.9592 164.09 62.6172 164.328C62.2732 164.567 62.1882 165.038 62.4262 165.38Z" fill="#B4CAE3"/>
<path d="M48.4191 212.149C64.5561 224.844 48.6181 227.983 60.4951 237.608C71.3211 246.38 84.4011 235.027 86.3421 259.373C86.7671 264.699 91.0941 268.172 96.7461 269.542C106.047 271.794 114.394 267.69 119.035 260.959C119.413 260.416 119.766 259.852 120.091 259.272C123.501 253.229 124.089 245.52 120.181 238.414C117.011 232.649 111.964 227.206 103.997 225.747C85.3051 222.324 92.4651 197.253 77.1021 198.022C58.5751 198.947 57.1121 192.286 42.9871 184.755C28.0151 176.768 26.5491 194.945 48.4191 212.149Z" fill="#D9E4F5"/>
<path d="M53.9452 203.502C54.3972 203.869 91.9403 234.355 119.035 260.957C119.413 260.414 119.766 259.85 120.091 259.27C92.9293 232.658 55.6212 202.359 55.1672 201.992C54.7502 201.654 54.1392 201.719 53.8012 202.136C53.4632 202.553 53.5282 203.165 53.9452 203.502Z" fill="#C7D9ED"/>
<path d="M379.223 126.622C369.933 139.611 382.517 138.489 375.741 148.259C369.564 157.164 357.328 151.529 361.172 170.132C362.013 174.201 359.537 177.736 355.614 179.988C349.158 183.692 342.032 182.443 337.104 178.425C336.704 178.102 336.317 177.757 335.948 177.395C332.088 173.624 329.973 167.995 331.346 161.839C332.46 156.844 335.045 151.683 340.677 148.861C353.891 142.24 343.093 125.076 354.732 122.31C368.768 118.972 368.412 113.68 377.322 104.985C386.767 95.7654 391.814 109.02 379.223 126.622Z" fill="#C7D9ED"/>
<path d="M373.217 121.367C372.959 121.74 351.553 152.668 337.104 178.424C336.704 178.101 336.317 177.756 335.948 177.394C350.445 151.616 371.716 120.878 371.975 120.505C372.213 120.162 372.684 120.077 373.026 120.315C373.37 120.553 373.455 121.024 373.217 121.367Z" fill="#B4CAE3"/>
<path d="M409.165 144.301C393.028 156.996 408.966 160.135 397.089 169.76C386.263 178.532 373.183 167.179 371.242 191.525C370.817 196.851 366.49 200.324 360.838 201.694C351.537 203.946 343.19 199.842 338.549 193.111C338.171 192.568 337.818 192.004 337.493 191.424C334.083 185.381 333.495 177.672 337.403 170.566C340.573 164.801 345.62 159.358 353.587 157.899C372.279 154.476 365.119 129.406 380.482 130.174C399.009 131.099 400.472 124.438 414.597 116.907C429.569 108.921 431.035 127.097 409.165 144.301Z" fill="#D9E4F5"/>
<path d="M403.639 135.654C403.187 136.021 365.644 166.507 338.549 193.109C338.171 192.566 337.818 192.002 337.493 191.422C364.655 164.81 401.963 134.511 402.417 134.144C402.834 133.806 403.445 133.871 403.783 134.288C404.12 134.704 404.055 135.316 403.639 135.654Z" fill="#C7D9ED"/>
<path d="M174.812 158.74C168.498 154.416 152.686 165.081 144.417 178.03L151.752 157.481C154.407 155.178 159.054 151.947 166.318 149.373C177.613 145.37 188.934 139.098 182.609 134.767C176.681 130.708 162.382 139.86 153.812 151.71L163.232 125.321C164.985 123.973 167.652 122.336 171.463 120.985C178.582 118.462 185.716 114.51 181.73 111.78C178.271 109.411 170.286 114.182 164.835 120.831L167.888 112.278C169.284 109.793 171.27 106.243 174.4 103.004C181.652 95.5012 187.135 87.0602 181.542 85.8372C175.944 84.6132 166.782 99.3162 165.34 112.6L163.769 117.001C164.989 107.339 161.516 95.6412 156.671 95.2272C151.857 94.8152 154.876 102.392 158.788 108.853C161.766 113.771 162.588 117.673 162.808 119.692L155.387 140.48C157.275 125.173 151.774 106.715 144.108 106.06C136.47 105.407 141.26 117.429 147.467 127.68C152.158 135.427 153.479 141.588 153.84 144.812L144.942 169.74C146.52 154.615 141.109 136.258 133.563 136.198C127.745 136.152 129.526 144.366 136.475 155.962C141.197 163.842 142.708 170.919 143.191 174.645L139 186.387C139.702 186.884 140.433 187.144 141.158 187.157L142.826 182.485C145.182 180.206 150.089 176.333 158.521 173.345C169.816 169.342 181.137 163.071 174.812 158.74Z" fill="#D9E4F5"/>
<path d="M94.818 376.143H98.318L98.195 376.036C96.925 373.015 95.094 367.037 95.364 358.096C95.726 346.118 93.984 333.294 87.655 337.619C81.337 341.937 85.546 360.539 94.619 372.939L78.125 358.655C76.941 355.346 75.614 349.844 75.847 342.141C76.209 330.163 74.467 317.339 68.138 321.664C62.207 325.718 65.554 342.362 73.493 354.643L52.312 336.3C51.691 334.178 51.131 331.099 51.254 327.057C51.482 319.508 50.384 311.426 46.395 314.152C42.933 316.518 44.486 325.688 48.708 333.179L41.843 327.234C40.033 325.032 37.444 321.894 35.56 317.804C31.195 308.326 25.315 300.156 22.149 304.926C18.979 309.7 29.363 323.567 41.221 329.725L44.754 332.784C36.191 328.145 24.029 327.143 21.887 331.508C19.759 335.845 27.915 335.777 35.354 334.473C41.017 333.48 44.951 334.128 46.913 334.654L63.598 349.104C50.016 341.797 30.819 340.235 27.43 347.142C24.053 354.024 36.994 353.916 48.798 351.846C57.718 350.282 63.939 351.283 67.075 352.115L87.084 369.443C73.559 362.491 54.489 360.881 51.699 367.892C49.548 373.298 57.849 374.615 71.175 372.34C80.231 370.794 87.374 371.952 91.022 372.852L94.818 376.143Z" fill="#D9E4F5"/>
<path d="M443.452 135.087C440.816 135.087 438.671 132.942 438.671 130.306C438.671 127.67 440.816 125.525 443.452 125.525C446.089 125.525 448.233 127.67 448.233 130.306C448.233 132.942 446.088 135.087 443.452 135.087ZM443.452 133.587C445.261 133.587 446.733 132.115 446.733 130.306C446.733 128.497 445.261 127.025 443.452 127.025C441.643 127.025 440.171 128.497 440.171 130.306C440.171 132.115 441.643 133.587 443.452 133.587Z" fill="#007EFF"/>
<path d="M448.316 159.388C445.679 159.388 443.535 157.243 443.535 154.607C443.535 151.971 445.68 149.826 448.316 149.826C450.953 149.826 453.097 151.971 453.097 154.607C453.097 157.243 450.953 159.388 448.316 159.388ZM448.316 157.888C450.125 157.888 451.597 156.416 451.597 154.607C451.597 152.798 450.125 151.326 448.316 151.326C446.506 151.326 445.035 152.798 445.035 154.607C445.035 156.416 446.507 157.888 448.316 157.888Z" fill="#0060E6"/>
<path d="M462.86 166.121C462.86 165.707 462.524 165.371 462.11 165.371H458.802C458.388 165.371 458.052 165.707 458.052 166.121C458.052 166.535 458.388 166.871 458.802 166.871H462.11C462.524 166.871 462.86 166.535 462.86 166.121Z" fill="#007EFF"/>
<path d="M468.648 166.121C468.648 165.707 468.312 165.371 467.898 165.371H464.591C464.177 165.371 463.841 165.707 463.841 166.121C463.841 166.535 464.177 166.871 464.591 166.871H467.898C468.312 166.871 468.648 166.535 468.648 166.121Z" fill="#007EFF"/>
<path d="M464.101 170.764V167.793C464.101 167.379 463.765 167.043 463.351 167.043C462.937 167.043 462.601 167.379 462.601 167.793V170.764C462.601 171.178 462.937 171.514 463.351 171.514C463.765 171.514 464.101 171.178 464.101 170.764Z" fill="#007EFF"/>
<path d="M464.101 164.45V161.479C464.101 161.065 463.765 160.729 463.351 160.729C462.937 160.729 462.601 161.065 462.601 161.479V164.45C462.601 164.864 462.937 165.2 463.351 165.2C463.765 165.2 464.101 164.864 464.101 164.45Z" fill="#007EFF"/>
<path d="M457.467 140.584C457.467 140.17 457.131 139.834 456.717 139.834H453.409C452.995 139.834 452.659 140.17 452.659 140.584C452.659 140.998 452.995 141.334 453.409 141.334H456.717C457.131 141.334 457.467 140.998 457.467 140.584Z" fill="#0060E6"/>
<path d="M463.255 140.584C463.255 140.17 462.919 139.834 462.505 139.834H459.198C458.784 139.834 458.448 140.17 458.448 140.584C458.448 140.998 458.784 141.334 459.198 141.334H462.505C462.919 141.334 463.255 140.998 463.255 140.584Z" fill="#0060E6"/>
<path d="M458.707 145.227V142.256C458.707 141.842 458.371 141.506 457.957 141.506C457.543 141.506 457.207 141.842 457.207 142.256V145.227C457.207 145.641 457.543 145.977 457.957 145.977C458.371 145.977 458.707 145.641 458.707 145.227Z" fill="#0060E6"/>
<path d="M458.707 138.912V135.941C458.707 135.527 458.371 135.191 457.957 135.191C457.543 135.191 457.207 135.527 457.207 135.941V138.912C457.207 139.326 457.543 139.662 457.957 139.662C458.371 139.662 458.707 139.326 458.707 138.912Z" fill="#0060E6"/>
<path d="M47.135 291.076C47.135 293.712 44.99 295.857 42.354 295.857C39.718 295.857 37.573 293.712 37.573 291.076C37.573 288.44 39.718 286.295 42.354 286.295C44.99 286.294 47.135 288.439 47.135 291.076ZM39.072 291.076C39.072 292.885 40.544 294.357 42.353 294.357C44.162 294.357 45.634 292.885 45.634 291.076C45.634 289.267 44.162 287.795 42.353 287.795C40.544 287.794 39.072 289.266 39.072 291.076Z" fill="#007EFF"/>
<path d="M51.999 266.775C51.999 269.411 49.854 271.556 47.218 271.556C44.582 271.556 42.437 269.411 42.437 266.775C42.437 264.139 44.582 261.994 47.218 261.994C49.855 261.993 51.999 264.138 51.999 266.775ZM43.937 266.775C43.937 268.584 45.409 270.056 47.218 270.056C49.027 270.056 50.499 268.584 50.499 266.775C50.499 264.966 49.027 263.494 47.218 263.494C45.409 263.493 43.937 264.965 43.937 266.775Z" fill="#0060E6"/>
<path d="M61.7621 255.26C61.7621 255.674 61.4261 256.01 61.0121 256.01H57.7041C57.2901 256.01 56.9541 255.674 56.9541 255.26C56.9541 254.846 57.2901 254.51 57.7041 254.51H61.0121C61.4261 254.51 61.7621 254.846 61.7621 255.26Z" fill="#007EFF"/>
<path d="M67.5502 255.26C67.5502 255.674 67.2142 256.01 66.8002 256.01H63.4932C63.0792 256.01 62.7432 255.674 62.7432 255.26C62.7432 254.846 63.0792 254.51 63.4932 254.51H66.8002C67.2142 254.51 67.5502 254.846 67.5502 255.26Z" fill="#007EFF"/>
<path d="M63.0022 250.617V253.588C63.0022 254.002 62.6662 254.338 62.2522 254.338C61.8382 254.338 61.5022 254.002 61.5022 253.588V250.617C61.5022 250.203 61.8382 249.867 62.2522 249.867C62.6672 249.867 63.0022 250.203 63.0022 250.617Z" fill="#007EFF"/>
<path d="M63.0022 256.932V259.903C63.0022 260.317 62.6662 260.653 62.2522 260.653C61.8382 260.653 61.5022 260.317 61.5022 259.903V256.932C61.5022 256.518 61.8382 256.182 62.2522 256.182C62.6672 256.182 63.0022 256.518 63.0022 256.932Z" fill="#007EFF"/>
<path d="M56.368 280.797C56.368 281.211 56.032 281.547 55.618 281.547H52.311C51.897 281.547 51.561 281.211 51.561 280.797C51.561 280.383 51.897 280.047 52.311 280.047H55.618C56.033 280.046 56.368 280.382 56.368 280.797Z" fill="#0060E6"/>
<path d="M62.1571 280.797C62.1571 281.211 61.8211 281.547 61.4071 281.547H58.1001C57.6861 281.547 57.3501 281.211 57.3501 280.797C57.3501 280.383 57.6861 280.047 58.1001 280.047H61.4071C61.8211 280.046 62.1571 280.382 62.1571 280.797Z" fill="#0060E6"/>
<path d="M57.6091 276.154V279.125C57.6091 279.539 57.2731 279.875 56.8591 279.875C56.4451 279.875 56.1091 279.539 56.1091 279.125V276.154C56.1091 275.74 56.4451 275.404 56.8591 275.404C57.2731 275.404 57.6091 275.74 57.6091 276.154Z" fill="#0060E6"/>
<path d="M57.6091 282.469V285.44C57.6091 285.854 57.2731 286.19 56.8591 286.19C56.4451 286.19 56.1091 285.854 56.1091 285.44V282.469C56.1091 282.055 56.4451 281.719 56.8591 281.719C57.2731 281.719 57.6091 282.055 57.6091 282.469Z" fill="#0060E6"/>
<path d="M280.68 121.771L280.517 127.469L285.856 127.622C286.086 128.98 286.545 130.303 287.213 131.547L283.43 135.119L287.344 139.264L290.965 135.846C292.384 136.876 293.969 137.587 295.62 137.964L295.466 143.304L301.164 143.467L301.322 137.964C302.444 137.712 303.534 137.309 304.57 136.751L308.142 140.535L312.287 136.621L308.869 133C309.899 131.581 310.61 129.996 310.987 128.345L315.654 128.48L315.818 122.781L310.986 122.642C310.665 121.211 310.102 119.825 309.283 118.55L312.905 115.131L308.991 110.986L305.207 114.558C303.807 113.697 302.277 113.129 300.699 112.855L300.854 107.483L295.156 107.32L294.988 113.143C293.797 113.479 292.647 113.991 291.573 114.68L288.155 111.058L284.01 114.972L287.581 118.755C286.965 119.757 286.5 120.823 286.183 121.929L280.68 121.771ZM294.906 121.672C297.001 119.694 300.314 119.789 302.292 121.885C304.27 123.98 304.175 127.293 302.08 129.271C299.985 131.249 296.672 131.154 294.694 129.059C292.716 126.963 292.811 123.65 294.906 121.672Z" fill="#007EFF"/>
<path d="M299.378 133.707C303.988 133.212 307.323 129.073 306.827 124.463C306.331 119.853 302.193 116.518 297.583 117.014C292.973 117.51 289.638 121.648 290.134 126.258C290.63 130.867 294.768 134.202 299.378 133.707ZM294.906 121.672C297.001 119.694 300.314 119.789 302.292 121.885C304.27 123.98 304.175 127.293 302.08 129.271C299.985 131.249 296.672 131.154 294.694 129.059C292.716 126.963 292.811 123.65 294.906 121.672Z" fill="#0060E6"/>
<path d="M318.175 124.202L318.08 127.511L321.18 127.6C321.313 128.389 321.58 129.157 321.968 129.879L319.771 131.953L322.044 134.36L324.147 132.375C324.971 132.973 325.891 133.386 326.85 133.605L326.761 136.706L330.07 136.801L330.162 133.605C330.813 133.459 331.447 133.225 332.048 132.901L334.122 135.098L336.529 132.825L334.544 130.723C335.142 129.899 335.555 128.979 335.774 128.02L338.484 128.098L338.579 124.789L335.773 124.708C335.586 123.877 335.26 123.072 334.784 122.332L336.887 120.347L334.615 117.94L332.418 120.014C331.605 119.514 330.717 119.184 329.8 119.025L329.89 115.906L326.581 115.811L326.483 119.193C325.792 119.388 325.124 119.685 324.5 120.086L322.515 117.983L320.108 120.256L322.182 122.453C321.824 123.035 321.554 123.654 321.37 124.296L318.175 124.202ZM326.436 124.144C327.653 122.995 329.577 123.051 330.725 124.267C331.873 125.484 331.818 127.407 330.602 128.556C329.385 129.705 327.461 129.649 326.313 128.433C325.164 127.217 325.219 125.293 326.436 124.144Z" fill="#007EFF"/>
<path d="M329.033 131.133C331.71 130.845 333.647 128.442 333.359 125.765C333.071 123.088 330.668 121.151 327.991 121.439C325.314 121.727 323.377 124.13 323.665 126.807C323.953 129.484 326.356 131.42 329.033 131.133ZM326.436 124.144C327.653 122.995 329.577 123.051 330.725 124.267C331.873 125.484 331.818 127.407 330.602 128.556C329.385 129.705 327.461 129.649 326.313 128.433C325.164 127.217 325.219 125.293 326.436 124.144Z" fill="#0060E6"/>
<path d="M53.7141 250.754L53.7041 250.769H53.7211L53.7141 250.754Z" fill="#0060E6"/>
<path d="M53.7051 250.768L53.6411 250.855L53.6611 250.768H53.7051Z" fill="#0060E6"/>
<path d="M421.922 154.533V400.87C421.922 403.153 420.07 405.003 417.787 405.003H80.7221C79.6601 405.003 78.6961 404.604 77.9611 403.947C77.1201 403.19 76.5881 402.092 76.5881 400.869V154.533C76.5881 152.25 78.4381 150.398 80.7211 150.398H417.785C419.146 150.398 420.356 151.058 421.11 152.074C421.62 152.76 421.922 153.611 421.922 154.533Z" fill="#3B3E7D"/>
<path d="M421.922 154.534V400.871C421.922 403.154 420.07 405.004 417.787 405.004H80.7222C79.6602 405.004 78.6962 404.605 77.9612 403.948L421.112 152.074C421.62 152.761 421.922 153.612 421.922 154.534Z" fill="#18285D"/>
<path d="M412.102 164.772V390.63C412.102 393.143 410.062 395.183 407.547 395.183H90.9612C88.4462 395.183 86.4082 393.143 86.4082 390.63V164.772C86.4082 162.257 88.4462 160.217 90.9612 160.217H407.547C410.062 160.217 412.102 162.257 412.102 164.772Z" fill="white"/>
<path d="M412.102 164.772V180.618H86.4082V164.772C86.4082 162.257 88.4462 160.217 90.9612 160.217H407.547C410.062 160.217 412.102 162.257 412.102 164.772Z" fill="#D9E4F5"/>
<path d="M141.614 170.95C141.614 172.446 142.827 173.658 144.322 173.658H381.726C383.222 173.658 384.434 172.445 384.434 170.95C384.434 169.454 383.222 168.242 381.726 168.242H144.322C142.827 168.242 141.614 169.454 141.614 170.95Z" fill="white"/>
<path d="M104.514 170.952V172.959C104.514 173.534 103.891 173.894 103.393 173.606L101.656 172.603L99.9182 171.6C99.4202 171.312 99.4202 170.593 99.9182 170.305L101.656 169.302L103.393 168.299C103.891 168.011 104.514 168.371 104.514 168.946V170.952Z" fill="#3B3E7D"/>
<path d="M113.556 170.952V172.959C113.556 173.534 114.179 173.894 114.677 173.606L116.415 172.603L118.153 171.6C118.651 171.312 118.651 170.593 118.153 170.305L116.415 169.302L114.678 168.299C114.18 168.011 113.557 168.371 113.557 168.946L113.556 170.952Z" fill="#3B3E7D"/>
<path d="M395.184 198.188V329.645C395.184 334.321 391.393 338.112 386.717 338.112H119.784C115.108 338.112 111.317 334.32 111.317 329.645V198.188C111.317 193.512 115.109 189.721 119.784 189.721H386.717C391.393 189.721 395.184 193.513 395.184 198.188Z" fill="#D9E4F5"/>
<path d="M395.184 198.188V204.359H111.317V198.188C111.317 193.512 115.109 189.721 119.784 189.721H386.717C391.393 189.721 395.184 193.513 395.184 198.188Z" fill="#B4CAE3"/>
<path d="M367.917 196.897C367.917 198.482 366.632 199.767 365.047 199.767C363.462 199.767 362.177 198.482 362.177 196.897C362.177 195.312 363.462 194.027 365.047 194.027C366.632 194.027 367.917 195.312 367.917 196.897Z" fill="#3B3E7D"/>
<path d="M377.102 196.897C377.102 198.482 375.817 199.767 374.232 199.767C372.647 199.767 371.362 198.482 371.362 196.897C371.362 195.312 372.647 194.027 374.232 194.027C375.817 194.026 377.102 195.312 377.102 196.897Z" fill="#0060E6"/>
<path d="M386.286 196.897C386.286 198.482 385.001 199.767 383.416 199.767C381.831 199.767 380.546 198.482 380.546 196.897C380.546 195.312 381.831 194.027 383.416 194.027C385.001 194.026 386.286 195.312 386.286 196.897Z" fill="#007EFF"/>
<path d="M188.614 212.725H119.013V262.537H188.614V212.725Z" fill="#007EFF"/>
<path d="M188.613 249.356L185.23 243.658L174.02 224.779L151.601 262.536H188.613V249.356Z" fill="#18285D"/>
<path d="M146.961 262.536H119.013L132.987 240.018L146.961 217.5L160.935 240.018L174.909 262.536H146.961Z" fill="#3B3E7D"/>
<path d="M137.901 232.099L146.961 238.881L156.021 232.099L146.961 217.5L137.901 232.099Z" fill="white"/>
<path d="M166.39 237.63L174.02 243.658L181.651 237.63L174.02 224.779L166.39 237.63Z" fill="white"/>
<path d="M381.365 276.9H311.764V326.713H381.365V276.9Z" fill="#007EFF"/>
<path d="M381.363 313.532L377.98 307.834L366.771 288.955L344.352 326.713H381.363V313.532Z" fill="#18285D"/>
<path d="M339.712 326.714H311.764L325.738 304.196L339.712 281.678L353.685 304.196L367.659 326.714H339.712Z" fill="#3B3E7D"/>
<path d="M330.652 296.277L339.712 303.058L348.771 296.277L339.712 281.678L330.652 296.277Z" fill="white"/>
<path d="M359.14 301.806L366.771 307.834L374.401 301.806L366.771 288.955L359.14 301.806Z" fill="white"/>
<path d="M185.457 274.658H122.17C120.426 274.658 119.013 273.244 119.013 271.501C119.013 269.757 120.427 268.344 122.17 268.344H185.457C187.201 268.344 188.614 269.757 188.614 271.501C188.614 273.244 187.201 274.658 185.457 274.658Z" fill="#B4CAE3"/>
<path d="M185.457 287.748H122.17C120.426 287.748 119.013 286.335 119.013 284.591C119.013 282.847 120.427 281.434 122.17 281.434H185.457C187.201 281.434 188.614 282.847 188.614 284.591C188.614 286.335 187.201 287.748 185.457 287.748Z" fill="#B4CAE3"/>
<path d="M185.457 300.839H122.17C120.426 300.839 119.013 299.426 119.013 297.682C119.013 295.938 120.427 294.525 122.17 294.525H185.457C187.201 294.525 188.614 295.938 188.614 297.682C188.614 299.426 187.201 300.839 185.457 300.839Z" fill="#B4CAE3"/>
<path d="M185.457 313.929H122.17C120.426 313.929 119.013 312.516 119.013 310.772C119.013 309.028 120.427 307.615 122.17 307.615H185.457C187.201 307.615 188.614 309.028 188.614 310.772C188.614 312.516 187.201 313.929 185.457 313.929Z" fill="#B4CAE3"/>
<path d="M185.457 327.021H122.17C120.426 327.021 119.013 325.608 119.013 323.864C119.013 322.12 120.427 320.707 122.17 320.707H185.457C187.201 320.707 188.614 322.12 188.614 323.864C188.614 325.607 187.201 327.021 185.457 327.021Z" fill="#B4CAE3"/>
<path d="M200.659 215.882C200.659 217.626 202.072 219.039 203.816 219.039H296.087C297.831 219.039 299.244 217.626 299.244 215.882C299.244 214.138 297.831 212.725 296.087 212.725H203.816C202.073 212.725 200.659 214.138 200.659 215.882Z" fill="#B4CAE3"/>
<path d="M200.659 229.38C200.659 231.124 202.072 232.537 203.816 232.537H296.087C297.831 232.537 299.244 231.124 299.244 229.38C299.244 227.637 297.831 226.223 296.087 226.223H203.816C202.073 226.223 200.659 227.636 200.659 229.38Z" fill="#B4CAE3"/>
<path d="M200.659 242.878C200.659 244.622 202.072 246.035 203.816 246.035H296.087C297.831 246.035 299.244 244.622 299.244 242.878C299.244 241.134 297.831 239.721 296.087 239.721H203.816C202.073 239.721 200.659 241.134 200.659 242.878Z" fill="#B4CAE3"/>
<path d="M200.659 256.374C200.659 258.118 202.072 259.531 203.816 259.531H296.087C297.831 259.531 299.244 258.118 299.244 256.374C299.244 254.63 297.831 253.217 296.087 253.217H203.816C202.073 253.217 200.659 254.631 200.659 256.374Z" fill="#B4CAE3"/>
<path d="M200.659 269.872C200.659 271.616 202.072 273.029 203.816 273.029H296.087C297.831 273.029 299.244 271.616 299.244 269.872C299.244 268.129 297.831 266.715 296.087 266.715H203.816C202.073 266.715 200.659 268.129 200.659 269.872Z" fill="#B4CAE3"/>
<path d="M200.659 283.37C200.659 285.114 202.072 286.527 203.816 286.527H296.087C297.831 286.527 299.244 285.114 299.244 283.37C299.244 281.626 297.831 280.213 296.087 280.213H203.816C202.073 280.213 200.659 281.626 200.659 283.37Z" fill="#B4CAE3"/>
<path d="M200.659 296.868C200.659 298.612 202.072 300.025 203.816 300.025H296.087C297.831 300.025 299.244 298.612 299.244 296.868C299.244 295.125 297.831 293.711 296.087 293.711H203.816C202.073 293.711 200.659 295.124 200.659 296.868Z" fill="#B4CAE3"/>
<path d="M200.659 310.366C200.659 312.11 202.072 313.523 203.816 313.523H296.087C297.831 313.523 299.244 312.11 299.244 310.366C299.244 308.622 297.831 307.209 296.087 307.209H203.816C202.073 307.209 200.659 308.622 200.659 310.366Z" fill="#B4CAE3"/>
<path d="M200.659 323.864C200.659 325.608 202.072 327.021 203.816 327.021H296.087C297.831 327.021 299.244 325.608 299.244 323.864C299.244 322.121 297.831 320.707 296.087 320.707H203.816C202.073 320.707 200.659 322.12 200.659 323.864Z" fill="#B4CAE3"/>
<path d="M342.655 215.882C342.655 217.626 344.068 219.039 345.812 219.039H377.267C379.01 219.039 380.424 217.626 380.424 215.882C380.424 214.138 379.01 212.725 377.267 212.725H345.812C344.068 212.725 342.655 214.138 342.655 215.882Z" fill="#B4CAE3"/>
<path d="M342.655 229.38C342.655 231.124 344.068 232.537 345.812 232.537H377.267C379.01 232.537 380.424 231.124 380.424 229.38C380.424 227.636 379.01 226.223 377.267 226.223H345.812C344.068 226.223 342.655 227.636 342.655 229.38Z" fill="#B4CAE3"/>
<path d="M342.655 242.878C342.655 244.621 344.068 246.035 345.812 246.035H377.267C379.01 246.035 380.424 244.622 380.424 242.878C380.424 241.134 379.01 239.721 377.267 239.721H345.812C344.068 239.721 342.655 241.134 342.655 242.878Z" fill="#B4CAE3"/>
<path d="M342.655 256.374C342.655 258.118 344.068 259.531 345.812 259.531H377.267C379.01 259.531 380.424 258.118 380.424 256.374C380.424 254.63 379.01 253.217 377.267 253.217H345.812C344.068 253.217 342.655 254.631 342.655 256.374Z" fill="#B4CAE3"/>
<path d="M342.655 269.872C342.655 271.615 344.068 273.029 345.812 273.029H377.267C379.01 273.029 380.424 271.616 380.424 269.872C380.424 268.128 379.01 266.715 377.267 266.715H345.812C344.068 266.715 342.655 268.129 342.655 269.872Z" fill="#B4CAE3"/>
<path d="M324.553 238.303C331.616 238.303 337.342 232.577 337.342 225.514C337.342 218.45 331.616 212.725 324.553 212.725C317.49 212.725 311.764 218.45 311.764 225.514C311.764 232.577 317.49 238.303 324.553 238.303Z" fill="#B4CAE3"/>
<path d="M324.553 271.611C331.616 271.611 337.342 265.885 337.342 258.822C337.342 251.759 331.616 246.033 324.553 246.033C317.49 246.033 311.764 251.759 311.764 258.822C311.764 265.885 317.49 271.611 324.553 271.611Z" fill="#B4CAE3"/>
<path d="M252.021 0V134.112C252.021 134.791 252.572 135.342 253.251 135.342C253.93 135.342 254.481 134.791 254.481 134.112V0H252.021Z" fill="#007EFF"/>
<path d="M264.636 170.628C264.542 176.566 259.719 181.545 253.787 181.816C247.266 182.114 241.865 176.902 241.865 170.446C241.865 170.002 241.902 169.572 241.954 169.15C243.806 170.461 245.664 171.794 247.597 172.986C248.679 175.389 251.252 176.982 254.137 176.583C256.774 176.219 258.931 174.123 259.366 171.498C259.939 168.043 257.625 164.986 254.455 164.358C252.307 164.354 250.567 162.611 250.567 160.463V159.123H254.455C260.223 159.728 264.729 164.674 264.636 170.628Z" fill="#18285D"/>
<path d="M253.251 191.519C252.572 191.519 252.021 190.968 252.021 190.289V176.642C252.021 175.963 252.572 175.412 253.251 175.412C253.93 175.412 254.481 175.963 254.481 176.642V190.289C254.48 190.968 253.93 191.519 253.251 191.519Z" fill="#00A0FF"/>
<path d="M260.008 152.827H246.678V140.18C246.678 137.553 248.808 135.424 251.434 135.424H255.252C257.879 135.424 260.008 137.553 260.008 140.18V152.827Z" fill="#0060E6"/>
<path d="M260.008 152.826C261.532 157.135 258.499 160.047 256.572 160.047H250.566C247.718 160.047 245.71 156.437 246.678 152.826H260.008Z" fill="#007EFF"/>
<path d="M160.591 438.032C160.591 441.922 127.378 445.076 86.4081 445.076C45.4381 445.076 12.2251 441.922 12.2251 438.032C12.2251 434.142 45.4381 430.988 86.4081 430.988C127.379 430.988 160.591 434.142 160.591 438.032Z" fill="#D9E4F5"/>
<path d="M24.7412 438.031H140.792V299.111L29.9822 431.758L24.7412 438.031ZM123.383 420.623H61.9652L123.383 347.101V420.623Z" fill="#007EFF"/>
<path d="M139.199 326.076H133.283V327.441H139.199V326.076Z" fill="#3B3E7D"/>
<path d="M139.199 333.979H133.283V335.344H139.199V333.979Z" fill="#3B3E7D"/>
<path d="M139.199 341.881H133.283V343.246H139.199V341.881Z" fill="#3B3E7D"/>
<path d="M139.199 349.785H133.283V351.15H139.199V349.785Z" fill="#3B3E7D"/>
<path d="M139.199 357.688H133.283V359.053H139.199V357.688Z" fill="#3B3E7D"/>
<path d="M139.199 365.59H133.283V366.955H139.199V365.59Z" fill="#3B3E7D"/>
<path d="M139.199 373.494H133.283V374.859H139.199V373.494Z" fill="#3B3E7D"/>
<path d="M139.199 381.396H133.283V382.761H139.199V381.396Z" fill="#3B3E7D"/>
<path d="M139.199 389.299H133.283V390.664H139.199V389.299Z" fill="#3B3E7D"/>
<path d="M139.199 397.203H133.283V398.568H139.199V397.203Z" fill="#3B3E7D"/>
<path d="M139.199 405.105H133.283V406.47H139.199V405.105Z" fill="#3B3E7D"/>
<path d="M139.199 413.01H133.283V414.375H139.199V413.01Z" fill="#3B3E7D"/>
<path d="M139.199 420.912H133.283V422.277H139.199V420.912Z" fill="#3B3E7D"/>
<path d="M139.199 428.814H133.283V430.179H139.199V428.814Z" fill="#3B3E7D"/>
<path d="M24.7412 438.031H140.792V431.758H29.9822L24.7412 438.031Z" fill="#0060E6"/>
<path d="M444.286 437.539C444.286 439.75 426.888 441.543 405.426 441.543C383.964 441.543 366.566 439.75 366.566 437.539C366.566 435.327 383.964 433.535 405.426 433.535C426.888 433.535 444.286 435.327 444.286 437.539Z" fill="#D9E4F5"/>
<path d="M377.552 420.699L377.153 427.894L382.991 428.022L383.705 420.463L377.552 420.699Z" fill="#FB9A83"/>
<path d="M379.469 426.883C379.469 426.883 382.474 426.202 383.296 426.25C384.118 426.298 389.395 432.669 391.236 433.102C394.576 433.888 394.381 439.142 392.323 439.326C386.372 439.856 376.335 436.97 376.335 436.97C376.335 436.97 375.657 430.193 376.143 428.092C376.63 425.991 377.791 427.442 379.469 426.883Z" fill="#007EFF"/>
<path d="M384.155 432.825C384.048 432.844 383.935 432.822 383.84 432.753C383.657 432.619 383.617 432.363 383.75 432.18C383.794 432.119 384.857 430.673 386.122 430.204C387.805 429.578 388.946 430.617 388.994 430.662C389.16 430.816 389.169 431.076 389.014 431.242C388.86 431.408 388.6 431.417 388.434 431.262C388.403 431.234 387.606 430.53 386.408 430.973C385.377 431.355 384.424 432.649 384.414 432.662C384.349 432.752 384.255 432.807 384.155 432.825Z" fill="#FCFBFF"/>
<path d="M383.067 431.54C382.961 431.559 382.847 431.537 382.752 431.468C382.569 431.335 382.528 431.078 382.662 430.895C382.706 430.834 383.769 429.388 385.034 428.919C386.718 428.293 387.858 429.332 387.906 429.377C388.072 429.531 388.081 429.791 387.926 429.957C387.772 430.123 387.512 430.132 387.346 429.977C387.315 429.949 386.518 429.245 385.32 429.688C384.285 430.072 383.336 431.364 383.326 431.377C383.261 431.467 383.168 431.522 383.067 431.54Z" fill="#FCFBFF"/>
<path d="M385.699 433.942C385.593 433.961 385.479 433.939 385.384 433.87C385.201 433.737 385.16 433.48 385.294 433.296C385.339 433.235 386.401 431.79 387.666 431.32C389.35 430.693 390.49 431.733 390.538 431.778C390.704 431.932 390.713 432.192 390.558 432.358C390.404 432.524 390.144 432.533 389.978 432.378C389.947 432.35 389.149 431.646 387.952 432.089C386.917 432.473 385.968 433.765 385.958 433.778C385.893 433.869 385.799 433.924 385.699 433.942Z" fill="#FCFBFF"/>
<path d="M399.019 333.022C399.019 333.022 398.898 334.712 398.677 337.514C398.62 338.256 398.556 339.075 398.484 339.967C397.728 349.372 396.267 366.377 394.669 378.441C392.43 395.354 385.378 423.147 385.378 423.147L378.098 422.897L377.378 422.868L375.652 422.811C375.652 422.811 376.864 405.228 378.411 389.962C379.431 379.894 380.037 356.072 380.329 341.028C380.479 333.27 380.55 327.844 380.55 327.844L399.019 333.022Z" fill="#3B3E7D"/>
<path d="M399.019 333.023C399.019 333.023 398.898 334.713 398.677 337.515C398.62 338.257 398.556 339.076 398.484 339.968C395.126 340.596 385.892 341.03 380.331 341.03C380.481 333.272 380.552 327.846 380.552 327.846L399.019 333.023Z" fill="#18285D"/>
<path d="M384.474 337.392C384.467 337.969 383.797 392.779 378.1 422.897L377.38 422.868C383.084 392.843 383.754 337.955 383.762 337.385L384.474 337.392Z" fill="#18285D"/>
<path d="M423.208 422.081L422.969 428.571L417.035 428.258L416.901 421.365L423.208 422.081Z" fill="#FB9A83"/>
<path d="M421.456 428.273C421.456 428.273 422.749 426.589 423.755 426.677C424.761 426.765 432.437 433.055 435.09 433.604C437.744 434.153 437.198 436.105 436.695 437.099C436.193 438.093 415.473 436.408 415.473 436.408C415.473 436.408 414.995 430.226 415.7 428.348C416.406 426.469 419.368 428.689 421.456 428.273Z" fill="#007EFF"/>
<path d="M425.685 432.647C425.591 432.674 425.486 432.663 425.394 432.609C425.217 432.504 425.158 432.276 425.262 432.099C425.297 432.039 426.13 430.64 427.233 430.105C428.699 429.391 429.822 430.231 429.869 430.267C430.033 430.392 430.063 430.626 429.938 430.789C429.813 430.953 429.579 430.984 429.415 430.858C429.384 430.835 428.603 430.269 427.558 430.775C426.66 431.211 425.911 432.464 425.904 432.477C425.854 432.564 425.774 432.622 425.685 432.647Z" fill="#FCFBFF"/>
<path d="M424.59 431.581C424.496 431.608 424.391 431.597 424.299 431.544C424.122 431.439 424.062 431.211 424.167 431.033C424.202 430.974 425.035 429.574 426.137 429.039C427.604 428.325 428.726 429.165 428.773 429.201C428.936 429.326 428.967 429.56 428.842 429.724C428.717 429.887 428.483 429.919 428.319 429.793C428.288 429.77 427.506 429.204 426.462 429.71C425.56 430.148 424.816 431.399 424.808 431.412C424.759 431.497 424.679 431.556 424.59 431.581Z" fill="#FCFBFF"/>
<path d="M427.179 433.521C427.084 433.548 426.979 433.538 426.888 433.484C426.711 433.379 426.651 433.151 426.756 432.974C426.791 432.915 427.624 431.515 428.726 430.98C430.193 430.266 431.315 431.106 431.362 431.142C431.525 431.267 431.556 431.501 431.431 431.664C431.306 431.827 431.072 431.859 430.908 431.733C430.877 431.711 430.095 431.144 429.051 431.65C428.149 432.088 427.404 433.339 427.397 433.352C427.348 433.438 427.268 433.496 427.179 433.521Z" fill="#FCFBFF"/>
<path d="M424.288 423.775L418.256 423.326L417.537 423.276L416.072 423.166C416.072 423.166 412.367 387.903 411.215 378.51C410.213 370.35 405.535 352.015 402.499 340.607C401.638 337.369 400.909 334.688 400.429 332.957C400.063 331.595 399.846 330.821 399.846 330.821L420.009 328.869C420.009 328.869 420.065 329.312 420.158 330.109C420.354 331.741 420.731 334.866 421.187 338.795C422.446 349.489 424.361 366.131 425.103 374.602C427.006 396.415 424.288 423.775 424.288 423.775Z" fill="#3B3E7D"/>
<path d="M421.187 338.795L402.499 340.607C401.638 337.369 400.909 334.688 400.429 332.957L420.158 330.109C420.355 331.74 420.732 334.866 421.187 338.795Z" fill="#18285D"/>
<path d="M418.257 423.327L417.538 423.277C417.188 412.373 416.118 385.139 413.933 373.593C411.187 359.04 404.873 337.848 404.808 337.634L405.495 337.43C405.56 337.644 411.884 358.873 414.634 373.462C416.833 385.081 417.912 412.445 418.257 423.327Z" fill="#18285D"/>
<path d="M423.274 330.425C408.254 335.209 392.986 336.119 377.466 333.193C377.167 328.968 376.384 315.098 375.791 300.482C375.771 299.997 375.751 299.512 375.732 299.027C375.718 298.638 375.703 298.249 375.687 297.858C375.675 297.578 375.664 297.295 375.654 297.013C375.648 296.885 375.644 296.756 375.64 296.628C375.624 296.246 375.613 295.857 375.598 295.477C375.584 295.159 375.569 294.84 375.559 294.522C375.558 294.478 375.555 294.433 375.555 294.39C375.554 294.35 375.552 294.312 375.551 294.272C375.536 293.937 375.527 293.6 375.514 293.269C375.512 293.204 375.508 293.139 375.506 293.075C375.494 292.673 375.477 292.271 375.466 291.871C375.455 291.594 375.445 291.323 375.434 291.051C375.431 290.94 375.428 290.83 375.423 290.72C375.408 290.412 375.398 290.103 375.391 289.799C375.387 289.707 375.385 289.614 375.383 289.522C375.375 289.241 375.367 288.959 375.359 288.676C375.355 288.557 375.354 288.437 375.35 288.317C375.338 287.915 375.32 287.515 375.316 287.12C375.3 286.731 375.289 286.349 375.281 285.968C375.271 285.713 375.263 285.459 375.255 285.206C375.238 284.654 375.225 284.107 375.214 283.565C374.893 271.044 374.931 260.771 375.829 259.365C377.914 256.106 388.001 250.862 391.045 248.436L391.075 248.937C391.075 248.937 393.224 251.45 395.454 251.118C397.479 250.823 398.894 248.372 399.131 247.928C400.782 248.949 404.543 250.529 408.201 252.24C411.858 253.944 415.409 255.766 416.64 257.261C417.694 258.549 418.872 268.566 419.945 280.863L419.947 280.903C419.966 281.132 419.987 281.361 420.007 281.591L420.009 281.625C420.02 281.802 420.038 281.979 420.056 282.163C420.065 282.275 420.073 282.385 420.084 282.499C420.105 282.75 420.129 283.004 420.148 283.259C420.178 283.638 420.214 284.019 420.244 284.407C420.273 284.801 420.305 285.2 420.342 285.6C420.351 285.719 420.36 285.838 420.371 285.957C420.393 286.239 420.416 286.52 420.442 286.8C420.449 286.892 420.455 286.984 420.462 287.076C420.486 287.379 420.51 287.688 420.534 287.995L420.559 288.325C420.579 288.596 420.601 288.867 420.623 289.143C420.652 289.542 420.684 289.943 420.715 290.344C420.719 290.407 420.725 290.472 420.73 290.537C420.754 290.867 420.779 291.203 420.805 291.537C420.807 291.577 420.811 291.614 420.814 291.654C420.817 291.697 420.821 291.742 420.824 291.786C420.85 292.104 420.873 292.422 420.898 292.739C420.928 293.118 420.958 293.499 420.982 293.888C420.992 294.016 421.001 294.145 421.011 294.273C421.034 294.555 421.054 294.836 421.075 295.116C421.104 295.504 421.133 295.893 421.16 296.283C421.195 296.767 421.229 297.251 421.264 297.735C422.299 312.28 423.074 326.156 423.274 330.425Z" fill="#00A0FF"/>
<path d="M420.369 285.955L375.358 288.674C375.354 288.555 375.353 288.435 375.349 288.315C375.337 287.913 375.319 287.513 375.315 287.118C375.299 286.729 375.288 286.347 375.28 285.966C375.27 285.711 375.262 285.457 375.254 285.204L420.082 282.496C420.103 282.747 420.127 283.001 420.146 283.256C420.176 283.635 420.212 284.016 420.242 284.404C420.271 284.798 420.303 285.197 420.34 285.597C420.349 285.717 420.358 285.836 420.369 285.955Z" fill="#007EFF"/>
<path d="M420.823 291.784L375.557 294.519C375.556 294.475 375.553 294.43 375.553 294.387C375.552 294.347 375.55 294.309 375.549 294.269C375.534 293.934 375.525 293.597 375.512 293.266C375.51 293.201 375.506 293.136 375.504 293.072C375.492 292.67 375.475 292.268 375.464 291.868C375.453 291.591 375.443 291.32 375.432 291.048L420.557 288.322C420.577 288.593 420.599 288.864 420.621 289.14C420.65 289.539 420.682 289.94 420.713 290.341C420.717 290.404 420.723 290.469 420.728 290.534C420.752 290.864 420.777 291.2 420.803 291.534C420.805 291.574 420.809 291.611 420.812 291.651C420.816 291.696 420.82 291.741 420.823 291.784Z" fill="#007EFF"/>
<path d="M421.262 297.733L375.79 300.48C375.77 299.995 375.75 299.51 375.731 299.025C375.717 298.636 375.702 298.247 375.686 297.856C375.674 297.576 375.663 297.293 375.653 297.011L421.009 294.271C421.032 294.553 421.052 294.834 421.073 295.114C421.102 295.502 421.131 295.891 421.158 296.281C421.193 296.765 421.228 297.249 421.262 297.733Z" fill="#007EFF"/>
<path d="M414.955 274.758C416.375 276.453 418.534 280.358 419.507 282.163C419.64 282.411 419.75 282.62 419.834 282.777C419.944 282.984 420.006 283.105 420.011 283.113C420.043 283.175 420.089 283.223 420.145 283.255C420.115 282.888 420.084 282.522 420.052 282.159C420.038 281.979 420.021 281.798 420.006 281.621L420.004 281.592C419.805 281.224 419.57 280.792 419.307 280.318C418.206 278.337 416.644 275.671 415.499 274.303C415.374 274.152 415.149 274.134 414.999 274.259C414.848 274.385 414.831 274.609 414.955 274.758Z" fill="#007EFF"/>
<path d="M384.852 262.76C384.856 262.76 384.86 262.76 384.863 262.759C390.926 262.199 395.46 259.388 398.196 257.13C401.16 254.683 402.671 252.399 402.734 252.303C402.841 252.139 402.795 251.919 402.632 251.812C402.468 251.705 402.248 251.75 402.141 251.914C402.082 252.005 396.048 261.013 384.798 262.053C384.603 262.071 384.459 262.244 384.477 262.439C384.495 262.629 384.662 262.771 384.852 262.76Z" fill="#007EFF"/>
<path d="M411.057 322.772C411.242 322.761 411.389 322.608 411.39 322.42C411.391 322.224 411.233 322.064 411.037 322.063C401.032 322.012 394.782 317.321 391.301 313.395C387.516 309.126 386.085 304.808 386.071 304.765C386.01 304.579 385.811 304.476 385.624 304.537C385.438 304.597 385.336 304.797 385.396 304.984C385.455 305.165 386.877 309.465 390.75 313.844C394.328 317.888 400.752 322.721 411.033 322.774C411.041 322.773 411.049 322.773 411.057 322.772Z" fill="#007EFF"/>
<path d="M402.607 316.837C402.763 316.828 402.9 316.715 402.933 316.554C402.973 316.362 402.849 316.175 402.657 316.135C393.855 314.317 391.747 307.185 391.727 307.114C391.674 306.926 391.477 306.815 391.29 306.869C391.102 306.922 390.992 307.117 391.044 307.306C391.066 307.384 391.599 309.246 393.283 311.36C394.832 313.306 397.692 315.834 402.514 316.83C402.545 316.836 402.577 316.839 402.607 316.837Z" fill="#007EFF"/>
<path d="M379.585 275.733C378.381 277.586 376.706 281.722 375.958 283.633C375.857 283.895 375.772 284.115 375.708 284.282C375.623 284.5 375.576 284.628 375.573 284.637C375.523 284.773 375.398 284.859 375.262 284.867H375.255C375.248 284.686 375.242 284.505 375.237 284.326C375.132 284.332 375.028 284.339 374.927 284.341C374.969 284.234 375.068 283.972 375.211 283.603C375.391 283.139 375.64 282.502 375.935 281.777C376.789 279.677 378.02 276.842 378.99 275.347C379.097 275.182 379.317 275.136 379.481 275.243C379.645 275.349 379.69 275.57 379.585 275.733Z" fill="#007EFF"/>
<path d="M382.801 230.2C383.194 236.707 387.471 240.949 393.977 240.556C400.484 240.163 404.727 235.068 404.334 228.561C403.941 222.054 399.79 217.358 393.284 217.751C385.48 218.222 382.408 223.693 382.801 230.2Z" fill="#021147"/>
<path d="M384.432 232.914C384.432 232.914 382.479 230.613 381.255 232.687C380.031 234.761 382.287 240.533 385.491 238.898L384.432 232.914Z" fill="#FF6D6B"/>
<path d="M384.663 237.122C384.541 237.129 384.425 237.056 384.383 236.935C383.763 235.148 381.836 234.525 381.817 234.519C381.67 234.473 381.588 234.317 381.634 234.17C381.68 234.023 381.836 233.941 381.982 233.987C382.072 234.015 384.196 234.695 384.91 236.752C384.96 236.897 384.883 237.056 384.738 237.107C384.713 237.116 384.688 237.121 384.663 237.122Z" fill="#ED495C"/>
<path d="M382.707 236.321C382.655 236.324 382.602 236.313 382.554 236.286C382.42 236.211 382.372 236.041 382.448 235.906C382.46 235.884 382.763 235.356 383.441 235.002C383.576 234.931 383.746 234.984 383.817 235.12C383.888 235.256 383.835 235.425 383.699 235.496C383.175 235.77 382.936 236.176 382.934 236.18C382.885 236.265 382.798 236.316 382.707 236.321Z" fill="#ED495C"/>
<path d="M403.062 231.789C403.062 231.789 404.724 229.269 406.189 231.181C407.654 233.093 406.109 239.095 402.731 237.856L403.062 231.789Z" fill="#FF6D6B"/>
<path d="M403.34 235.994C403.461 235.987 403.568 235.9 403.595 235.775C403.995 233.927 405.834 233.076 405.852 233.068C405.992 233.005 406.055 232.84 405.991 232.7C405.928 232.56 405.763 232.497 405.623 232.56C405.537 232.599 403.511 233.529 403.05 235.658C403.017 235.808 403.113 235.957 403.263 235.989C403.289 235.993 403.315 235.995 403.34 235.994Z" fill="#ED495C"/>
<path d="M405.185 234.963C405.236 234.96 405.288 234.942 405.333 234.91C405.457 234.819 405.484 234.645 405.393 234.521C405.378 234.5 405.014 234.012 404.298 233.743C404.155 233.688 403.993 233.761 403.939 233.906C403.885 234.05 403.957 234.211 404.101 234.265C404.654 234.474 404.94 234.848 404.943 234.852C405.001 234.929 405.094 234.969 405.185 234.963Z" fill="#ED495C"/>
<path d="M398.863 243.1L399.217 248.954C399.217 248.954 397.651 252.041 395.303 252.386C392.957 252.734 390.693 250.088 390.693 250.088L390.327 244.028L398.863 243.1Z" fill="#FB9A83"/>
<path d="M398.863 243.1L399.02 245.697C397.542 247.551 394.755 248.16 390.554 247.797L390.326 244.028L398.863 243.1Z" fill="#FF6D6B"/>
<path d="M383.466 232.862C383.51 233.2 383.559 233.541 383.614 233.886C383.754 234.752 383.926 235.641 384.14 236.523C384.148 236.555 384.154 236.584 384.161 236.612C385.208 240.882 387.232 245.018 391.123 246.149C399.938 248.708 402.571 241.124 403.543 236.737C403.65 236.25 403.741 235.71 403.815 235.135C403.818 235.113 403.82 235.089 403.825 235.062C403.906 234.416 403.969 233.73 404.014 233.024C404.049 232.501 404.073 231.971 404.09 231.438C404.138 230.142 404.141 228.844 404.126 227.693C404.093 225.064 402.377 222.747 399.865 221.954C396.244 220.807 390.806 220.054 385.889 223.249C384.072 224.428 383.012 226.474 383.101 228.638C383.15 229.831 383.257 231.294 383.466 232.862Z" fill="#FB9A83"/>
<path d="M390.351 233.02C390.389 233.645 390.097 234.171 389.7 234.195C389.303 234.219 388.95 233.732 388.912 233.107C388.874 232.482 389.166 231.956 389.563 231.932C389.96 231.908 390.313 232.395 390.351 233.02Z" fill="#021147"/>
<path d="M399.172 232.487C399.21 233.112 398.918 233.638 398.521 233.662C398.124 233.686 397.771 233.199 397.733 232.574C397.695 231.949 397.987 231.423 398.384 231.399C398.782 231.375 399.134 231.862 399.172 232.487Z" fill="#021147"/>
<path d="M400.184 228.564C400.184 228.564 397.86 227.804 396.158 228.665L396.392 229.626C396.392 229.626 398.944 229.254 400.268 229.7C400.36 229.318 400.354 228.939 400.184 228.564Z" fill="#021147"/>
<path d="M386.724 229.376C386.724 229.376 388.94 228.342 390.733 228.991L390.617 229.973C390.617 229.973 388.039 229.911 386.778 230.513C386.639 230.146 386.599 229.769 386.724 229.376Z" fill="#021147"/>
<path d="M394.346 237.583C393.884 237.668 393.392 237.573 393.316 237.557C393.165 237.525 393.069 237.378 393.101 237.228C393.132 237.078 393.28 236.981 393.43 237.012C393.696 237.067 394.319 237.115 394.548 236.913C394.592 236.874 394.649 236.803 394.636 236.633C394.559 235.658 393.707 232.499 393.698 232.467C393.658 232.318 393.746 232.165 393.894 232.125C394.043 232.085 394.195 232.173 394.236 232.321C394.272 232.453 395.111 235.562 395.192 236.589C395.222 236.975 395.059 237.206 394.917 237.331C394.76 237.468 394.556 237.544 394.346 237.583Z" fill="#FF6D6B"/>
<path d="M390.645 239.481C390.941 240.611 391.824 242.669 394.369 242.515C396.92 242.361 397.519 240.395 397.685 239.055L390.645 239.481Z" fill="#FCFBFF"/>
<path d="M404.078 231.776L402.818 231.852C402.881 230.578 402.328 229.077 401.887 228.081C400.886 225.822 402.658 224.693 401.105 223.625C399.553 222.555 395.893 223.275 393.322 223.347C390.735 223.42 386.588 223.707 385.595 224.001C384.599 224.293 385.254 225.936 385.702 227.212C386.153 228.485 384.63 230.018 384.441 231.378C384.387 231.768 384.438 232.34 384.537 232.957L383.486 233.021C383.262 231.394 383.152 229.873 383.1 228.638C383.011 226.475 384.071 224.429 385.887 223.25C390.805 220.055 396.243 220.807 399.863 221.953C402.376 222.747 404.093 225.064 404.126 227.694C404.142 228.943 404.136 230.367 404.078 231.776Z" fill="#021147"/>
<path d="M395.174 233.172C395.064 231.345 396.46 229.769 398.287 229.658C400.114 229.548 401.69 230.944 401.801 232.771C401.911 234.598 400.515 236.175 398.688 236.285C396.86 236.396 395.284 234.999 395.174 233.172ZM395.69 233.141C395.783 234.683 397.114 235.862 398.656 235.769C400.198 235.676 401.377 234.345 401.284 232.803C401.191 231.261 399.86 230.082 398.318 230.175C396.776 230.268 395.597 231.599 395.69 233.141Z" fill="#FCFBFF"/>
<path d="M386.116 233.719C386.006 231.892 387.402 230.315 389.229 230.205C391.056 230.095 392.633 231.491 392.743 233.318C392.853 235.145 391.457 236.722 389.63 236.832C387.803 236.943 386.227 235.547 386.116 233.719ZM386.633 233.688C386.726 235.23 388.057 236.409 389.599 236.316C391.141 236.223 392.32 234.892 392.227 233.35C392.134 231.808 390.803 230.629 389.261 230.722C387.719 230.815 386.54 232.146 386.633 233.688Z" fill="#FCFBFF"/>
<path d="M401.176 231.738C401.242 231.734 401.306 231.705 401.353 231.652C401.367 231.636 402.784 230.085 404.787 230.426C404.928 230.45 405.062 230.355 405.086 230.214C405.11 230.073 405.015 229.939 404.874 229.915C402.584 229.525 401.032 231.233 400.967 231.306C400.872 231.413 400.881 231.576 400.988 231.671C401.042 231.721 401.11 231.742 401.176 231.738Z" fill="#FCFBFF"/>
<path d="M386.551 232.622C386.635 232.617 386.716 232.571 386.76 232.492C386.831 232.368 386.788 232.21 386.663 232.139C386.56 232.08 384.124 230.709 382.149 231.159C382.01 231.191 381.922 231.329 381.954 231.469C381.986 231.608 382.123 231.695 382.264 231.664C384.042 231.26 386.383 232.576 386.407 232.589C386.453 232.614 386.502 232.625 386.551 232.622Z" fill="#FCFBFF"/>
<path d="M392.517 232.587C392.522 232.579 393.086 231.712 393.893 231.663C394.692 231.615 395.297 232.41 395.302 232.418L395.717 232.109C395.686 232.067 394.942 231.081 393.861 231.146C392.787 231.211 392.108 232.265 392.079 232.31L392.517 232.587Z" fill="#FCFBFF"/>
<path d="M378.413 327.032L375.483 331.032C375.483 331.032 373.786 329.97 371.483 328.123C371.476 328.116 371.476 328.116 371.469 328.109C367.961 325.307 363.048 320.694 360.538 315.268C357.401 308.487 358.321 302.997 358.321 302.997C358.735 298.976 361.43 290.804 363.576 284.737C364.36 282.534 365.073 280.616 365.572 279.268L372.125 280.772L374.927 282.497L373.85 285.342L366.62 304.522C367.255 310.148 370.107 315.681 372.852 319.845C375.69 324.166 378.413 327.032 378.413 327.032Z" fill="#FB9A83"/>
<path d="M378.413 327.031L375.483 331.031C375.483 331.031 373.786 329.969 371.483 328.122C371.476 328.115 371.476 328.115 371.469 328.108C370.963 325.085 371.269 320.814 372.852 319.844C375.69 324.165 378.413 327.031 378.413 327.031Z" fill="#FF6D6B"/>
<path d="M376.848 322.417C377.438 322.456 380.582 322.612 380.242 321.536C379.867 320.349 376.781 318.96 376.781 318.96C376.781 318.96 376.763 318.899 376.793 318.82L376.76 318.567L376.624 316.016C376.028 316.021 375.48 316.137 375.184 316.228C373.832 316.647 374.017 319.74 374.017 319.74C374.017 319.74 372.311 320.349 372.374 321.599C372.436 322.848 373.81 323.035 373.81 323.035C373.81 323.035 371.933 323.972 372.372 325.033C372.811 326.095 374.233 326.407 374.233 326.407C374.233 326.407 372.623 327.469 373.185 328.218C373.747 328.967 375.059 329.342 375.059 329.342C375.059 329.342 373.936 330.862 375.077 331.691C376.218 332.52 377.897 332.34 378.976 331.965C380.055 331.59 379.868 330.216 377.744 329.217C377.744 329.217 379.618 329.404 380.554 327.843C381.335 326.541 379.342 325.979 377.643 325.755C378.979 325.845 381.283 325.807 381.679 324.533C382.197 322.863 377.57 322.468 376.848 322.417Z" fill="#FB9A83"/>
<path d="M374.927 282.496L373.85 285.341C371.675 285.476 367.782 285.541 363.575 284.735C364.359 282.532 365.072 280.614 365.571 279.266L372.124 280.77L374.927 282.496Z" fill="#FF6D6B"/>
<path d="M375.828 259.365C375.828 259.365 367.852 267.367 362.029 281.323C366.593 282.799 370.913 283.843 374.925 284.342C375.454 283.412 377.547 277.444 379.123 273.138L375.828 259.365Z" fill="#00A0FF"/>
<path d="M438.474 304.742C438.432 304.767 438.39 304.794 438.349 304.821C435.981 306.366 432.795 305.426 431.644 302.841L425.087 290.652L423.055 286.459L421.761 283.791L420.595 281.383L419.53 279.187C419.39 278.484 419.252 277.743 419.117 276.978L422.373 268.505L423.841 267.445C423.841 267.445 425.629 271.289 428.081 276.006C428.455 276.724 428.843 277.462 429.244 278.212C429.448 278.596 429.657 278.979 429.866 279.366C430.355 280.266 430.857 281.171 431.366 282.067C431.902 283.006 432.436 283.941 432.95 284.849C433.314 285.488 433.671 286.113 434.013 286.721C434.222 287.085 434.426 287.447 434.623 287.796C436.239 290.646 437.513 292.917 437.992 293.812L438.833 293.751C438.836 293.748 442.555 302.002 438.474 304.742Z" fill="#FB9A83"/>
<path d="M429.869 279.365L423.056 286.458L421.762 283.79L420.596 281.382L428.083 276.006C428.457 276.724 428.845 277.462 429.246 278.212C429.451 278.596 429.66 278.979 429.869 279.365Z" fill="#FF6D6B"/>
<path d="M434.553 297.42C434.553 297.42 433.681 287.511 435.461 285.108C437.242 282.705 439.034 281.621 441.01 281.396C442.985 281.171 444.87 281.137 444.871 281.963C444.871 281.963 449.281 280.602 451.472 281.468C453.663 282.334 445.834 284.56 443.473 284.978C441.112 285.396 440.06 286.909 440.176 288.336C440.293 289.763 440.333 299.325 440.333 299.325L434.553 297.42Z" fill="#FB9A83"/>
<path d="M433.894 297.315C433.913 297.315 433.929 297.312 433.948 297.31C434.117 297.286 434.247 297.142 434.248 296.967C434.276 292.785 434.436 289.609 434.592 287.734C434.395 287.384 434.244 287.037 434.038 286.672C433.877 288.327 433.581 291.892 433.546 296.961C433.545 297.154 433.7 297.312 433.894 297.315Z" fill="#FF6D6B"/>
<path d="M430.212 284.817L460.155 280.516C461.281 280.354 462.063 279.31 461.901 278.184L461.898 278.166C461.736 277.04 460.692 276.258 459.566 276.42L429.623 280.721C428.497 280.883 427.715 281.927 427.877 283.053L427.879 283.071C428.042 284.197 429.086 284.979 430.212 284.817Z" fill="#18285D"/>
<path d="M462.187 280.225L465.142 255.358C465.308 253.961 464.105 252.787 462.712 252.987L448.641 255.008C447.692 255.144 446.949 255.895 446.823 256.847L443.382 282.926L462.187 280.225Z" fill="#3B3E7D"/>
<path d="M446.823 256.846L443.411 282.711L441.803 282.942L445.215 257.077C445.342 256.126 446.084 255.374 447.033 255.237L448.641 255.006C447.691 255.143 446.95 255.895 446.823 256.846Z" fill="#18285D"/>
<path d="M452.284 269.159C452.145 270.791 453.313 271.93 454.893 271.704C456.473 271.477 457.866 269.97 458.004 268.338C458.143 266.706 456.975 265.567 455.395 265.794C453.816 266.02 452.423 267.527 452.284 269.159Z" fill="#586199"/>
<path d="M430.985 276.916L429.246 278.212L421.762 283.79L420.85 284.469C420.415 283.269 419.967 281.4 419.532 279.186C419.392 278.483 419.254 277.742 419.119 276.977C417.609 268.465 416.337 256.932 416.337 256.932C416.337 256.932 423.275 263.44 430.985 276.916Z" fill="#00A0FF"/>
<path d="M207.85 441.957C229.312 441.957 246.71 440.165 246.71 437.953C246.71 435.742 229.312 433.949 207.85 433.949C186.388 433.949 168.99 435.742 168.99 437.953C168.99 440.165 186.388 441.957 207.85 441.957Z" fill="#D9E4F5"/>
<path d="M188.849 424.055L188.847 431.229L193.982 431.125L194.319 423.523L188.849 424.055Z" fill="#FB9A83"/>
<path d="M190.241 430.579C190.241 430.579 189.072 428.933 188.113 428.981C187.154 429.029 179.64 434.735 177.099 435.164C174.559 435.592 175.008 437.466 175.451 438.428C175.893 439.39 195.639 438.518 195.639 438.518C195.639 438.518 196.311 432.662 195.707 430.853C195.103 429.045 192.21 431.048 190.241 430.579Z" fill="#007EFF"/>
<path d="M186.069 434.586C186.158 434.615 186.258 434.609 186.347 434.561C186.519 434.468 186.583 434.253 186.49 434.081C186.459 434.023 185.716 432.664 184.688 432.117C183.32 431.387 182.224 432.145 182.178 432.178C182.018 432.291 181.98 432.512 182.094 432.672C182.207 432.832 182.428 432.87 182.588 432.756C182.618 432.736 183.381 432.225 184.355 432.743C185.193 433.189 185.86 434.406 185.866 434.418C185.911 434.501 185.985 434.559 186.069 434.586Z" fill="#FCFBFF"/>
<path d="M187.147 433.611C187.236 433.64 187.336 433.633 187.425 433.586C187.597 433.493 187.661 433.278 187.568 433.106C187.537 433.048 186.794 431.689 185.766 431.142C184.397 430.412 183.302 431.17 183.256 431.203C183.096 431.316 183.059 431.537 183.172 431.697C183.285 431.857 183.506 431.895 183.666 431.781C183.696 431.761 184.459 431.25 185.433 431.768C186.274 432.216 186.938 433.431 186.944 433.443C186.99 433.526 187.064 433.584 187.147 433.611Z" fill="#FCFBFF"/>
<path d="M184.619 435.363C184.708 435.392 184.808 435.386 184.897 435.338C185.069 435.245 185.133 435.03 185.04 434.858C185.009 434.801 184.266 433.441 183.238 432.894C181.869 432.164 180.774 432.922 180.728 432.955C180.568 433.068 180.531 433.289 180.644 433.449C180.757 433.608 180.978 433.647 181.138 433.533C181.168 433.513 181.931 433.002 182.905 433.52C183.747 433.968 184.41 435.183 184.416 435.195C184.461 435.278 184.535 435.336 184.619 435.363Z" fill="#FCFBFF"/>
<path d="M187.799 425.363L193.026 424.918L193.649 424.869L194.919 424.76C194.919 424.76 196.642 385.945 197.244 375.607C197.769 366.626 201.057 346.466 203.213 333.925C203.824 330.365 204.344 327.418 204.688 325.514C204.949 324.017 205.104 323.166 205.104 323.166L187.484 320.85C187.484 320.85 187.454 321.337 187.407 322.215C187.306 324.011 187.111 327.451 186.882 331.775C186.241 343.545 185.284 361.862 184.999 371.188C184.271 395.202 187.799 425.363 187.799 425.363Z" fill="#3B3E7D"/>
<path d="M186.882 331.775L203.212 333.925C203.823 330.365 204.343 327.418 204.687 325.514L187.406 322.215C187.306 324.01 187.111 327.45 186.882 331.775Z" fill="#18285D"/>
<path d="M193.026 424.918L193.649 424.869C193.49 412.86 193.262 382.867 194.672 370.167C196.441 354.158 201.032 330.865 201.079 330.63L200.473 330.4C200.426 330.636 195.828 353.969 194.057 370.018C192.638 382.798 192.863 412.933 193.026 424.918Z" fill="#18285D"/>
<path d="M230.161 421.753L232.252 428.616L237.133 427.018L235.238 419.648L230.161 421.753Z" fill="#FB9A83"/>
<path d="M233.638 427.601C233.638 427.601 231.967 426.469 231.085 426.849C230.204 427.229 225.162 435.205 222.932 436.496C220.702 437.786 221.779 439.384 222.53 440.131C223.281 440.878 241.473 433.15 241.473 433.15C241.473 433.15 240.052 427.428 238.853 425.945C237.654 424.461 235.646 427.352 233.638 427.601Z" fill="#007EFF"/>
<path d="M231.131 432.813C231.224 432.809 231.316 432.768 231.382 432.692C231.511 432.545 231.495 432.321 231.348 432.192C231.299 432.149 230.127 431.136 228.973 430.983C227.437 430.778 226.675 431.872 226.643 431.919C226.533 432.081 226.575 432.301 226.737 432.411C226.899 432.521 227.119 432.479 227.229 432.317C227.25 432.287 227.786 431.542 228.879 431.686C229.82 431.81 230.871 432.717 230.881 432.726C230.954 432.789 231.043 432.817 231.131 432.813Z" fill="#FCFBFF"/>
<path d="M231.801 431.524C231.894 431.52 231.986 431.479 232.052 431.403C232.181 431.256 232.166 431.032 232.018 430.903C231.969 430.86 230.797 429.847 229.643 429.694C228.105 429.489 227.345 430.583 227.313 430.63C227.203 430.792 227.245 431.012 227.407 431.122C227.569 431.232 227.789 431.19 227.899 431.028C227.92 430.998 228.456 430.253 229.55 430.397C230.495 430.522 231.542 431.428 231.552 431.437C231.623 431.5 231.713 431.528 231.801 431.524Z" fill="#FCFBFF"/>
<path d="M230.046 434.051C230.139 434.047 230.231 434.006 230.297 433.93C230.426 433.782 230.411 433.559 230.263 433.43C230.214 433.387 229.042 432.374 227.887 432.221C226.349 432.016 225.589 433.11 225.557 433.157C225.447 433.319 225.489 433.539 225.651 433.649C225.813 433.759 226.034 433.717 226.143 433.555C226.164 433.525 226.7 432.78 227.794 432.924C228.739 433.049 229.786 433.955 229.796 433.964C229.868 434.026 229.958 434.055 230.046 434.051Z" fill="#FCFBFF"/>
<path d="M229.635 423.255L234.548 421.416L235.135 421.201L236.328 420.754C236.328 420.754 227.513 382.914 225.303 372.797C223.384 364.007 221.111 343.709 219.803 331.05C219.43 327.457 219.136 324.479 218.954 322.553C218.801 321.041 218.721 320.18 218.721 320.18L201.13 322.705C201.13 322.705 201.232 323.182 201.424 324.04C201.811 325.797 202.552 329.162 203.498 333.387C206.057 344.893 210.078 362.789 212.32 371.846C218.1 395.164 229.635 423.255 229.635 423.255Z" fill="#3B3E7D"/>
<path d="M203.497 333.385L219.802 331.048C219.429 327.455 219.135 324.477 218.953 322.551L201.423 324.037C201.81 325.794 202.551 329.159 203.497 333.385Z" fill="#18285D"/>
<path d="M234.548 421.416L235.135 421.201C231.741 409.68 223.429 380.862 221.358 368.252C218.742 352.359 216.876 328.692 216.858 328.453L216.212 328.395C216.23 328.635 218.099 352.343 220.725 368.274C222.808 380.963 231.157 409.919 234.548 421.416Z" fill="#18285D"/>
<path d="M198.027 279.57C193.201 287.428 179.494 294.733 179.494 294.733C174.287 293.883 170.947 292.489 167.619 290.857C168.471 288.51 168.777 286.153 169.167 283.091C174.019 284.197 178.188 284.713 178.188 284.713C188.074 279.55 198.859 255.48 198.859 255.48C202.45 262.059 198.027 279.57 198.027 279.57Z" fill="#007EFF"/>
<path d="M199.604 248.416C199.592 249.399 199.554 250.506 199.508 251.688C200.994 252.075 202.529 252.331 204.03 252.588C208.185 253.3 212.419 253.594 216.612 253.039C219.681 252.633 222.741 251.889 225.3 250.07C226.455 249.249 227.415 248.247 228.197 247.121C227.539 245.898 226.868 244.311 226.755 240.479C226.653 237.029 226.472 232.262 226.472 232.262C225.962 221.922 215.542 220.022 215.542 220.022C203.001 217.483 198.692 227.9 198.35 233.739C198.327 234.137 198.317 234.541 198.323 234.947L198.321 234.98C198.159 237.413 199.661 243.59 199.604 248.416Z" fill="#021147"/>
<path d="M226.432 259.402C226.432 259.402 225.891 266.151 224.732 272.632C224.319 274.941 223.829 277.214 223.259 279.137C222.915 280.293 222.563 281.574 222.216 282.947C220.649 289.125 219.171 297.17 218.999 304.015C218.967 305.301 218.982 306.543 219.048 307.721C219.557 316.587 222.789 324.347 219.879 327.456C219.879 327.456 195.508 333.068 185.692 324.768C184.88 324.082 184.539 322.995 184.861 321.982C186.253 317.621 190.319 304.788 192.08 298.11C193.588 292.389 194.552 288.154 194.564 284.689C194.564 284.396 194.559 284.111 194.547 283.831C194.498 282.707 194.333 281.662 194.045 280.671C192.825 276.487 192.572 274.97 194.2 271.979C194.549 271.335 194.965 270.203 195.4 268.828C196.986 263.806 198.858 255.483 198.858 255.483L200.74 255.043L203.566 254.384L205.28 253.981L213.886 253.246C213.886 253.246 215.379 253.915 217.386 254.854C218.515 255.383 219.809 255.993 221.09 256.615C223.151 257.616 225.18 258.649 226.432 259.402Z" fill="#00A0FF"/>
<path d="M224.732 272.632C224.319 274.941 223.829 277.214 223.259 279.137C222.915 280.293 222.563 281.574 222.216 282.947C220.649 289.125 219.171 297.17 218.999 304.015L210.194 299.627L217.759 291.466L219.702 270.514L224.732 272.632Z" fill="#007EFF"/>
<path d="M194.546 283.83C194.56 284.11 194.565 284.396 194.564 284.687C198.564 288.559 205.546 293.944 213.882 294.501C214.046 294.512 214.19 294.387 214.201 294.222C214.212 294.058 214.087 293.914 213.922 293.903C205.451 293.337 198.39 287.658 194.546 283.83Z" fill="#007EFF"/>
<path d="M204.034 270.746C208.269 271.029 212.477 266.788 212.659 266.602C212.775 266.484 212.773 266.294 212.655 266.178C212.537 266.062 212.348 266.064 212.232 266.182C212.188 266.227 207.781 270.668 203.71 270.111C203.547 270.088 203.395 270.203 203.373 270.367C203.351 270.531 203.465 270.682 203.629 270.704C203.763 270.724 203.899 270.737 204.034 270.746Z" fill="#007EFF"/>
<path d="M211.071 314.248C211.221 314.258 211.357 314.154 211.385 314.003C211.415 313.84 211.307 313.684 211.144 313.654C200.288 311.664 197.021 292.425 196.99 292.231C196.963 292.068 196.809 291.958 196.646 291.985C196.483 292.012 196.372 292.166 196.399 292.329C196.531 293.139 199.77 312.178 211.037 314.244C211.048 314.246 211.06 314.247 211.071 314.248Z" fill="#007EFF"/>
<path d="M207.098 308.228C207.198 308.235 207.299 308.191 207.362 308.103C207.458 307.968 207.427 307.781 207.292 307.685C201.713 303.709 201.201 298.363 201.197 298.31C201.183 298.145 201.04 298.021 200.874 298.037C200.709 298.051 200.587 298.195 200.6 298.36C200.619 298.589 201.129 304.029 206.945 308.174C206.991 308.206 207.044 308.224 207.098 308.228Z" fill="#007EFF"/>
<path d="M202.574 235.941C202.574 235.941 200.92 233.53 199.449 235.334C197.978 237.138 199.505 242.857 202.887 241.712L202.574 235.941Z" fill="#FF6D6B"/>
<path d="M201.44 241.224C201.418 241.556 201.131 241.807 200.799 241.785C200.467 241.763 200.216 241.476 200.238 241.144C200.26 240.812 200.547 240.561 200.879 240.583C201.211 240.605 201.462 240.892 201.44 241.224Z" fill="white"/>
<path d="M202.284 239.936C202.163 239.928 202.056 239.844 202.029 239.725C201.634 237.964 199.798 237.139 199.78 237.131C199.64 237.069 199.578 236.912 199.642 236.779C199.705 236.646 199.87 236.588 200.01 236.649C200.096 236.687 202.119 237.59 202.574 239.618C202.606 239.761 202.51 239.901 202.36 239.931C202.334 239.936 202.308 239.938 202.284 239.936Z" fill="#ED495C"/>
<path d="M200.441 238.939C200.39 238.936 200.338 238.918 200.294 238.887C200.17 238.799 200.144 238.633 200.235 238.516C200.25 238.496 200.615 238.036 201.332 237.786C201.475 237.736 201.637 237.806 201.69 237.944C201.744 238.081 201.671 238.234 201.527 238.284C200.973 238.477 200.686 238.83 200.684 238.834C200.625 238.909 200.533 238.946 200.441 238.939Z" fill="#ED495C"/>
<path d="M215.726 248.571L215.314 254.739C215.314 254.739 211.914 257.679 209.413 257.727C206.913 257.778 206.25 254.787 206.25 254.787L206.676 248.402L215.726 248.571Z" fill="#FB9A83"/>
<path d="M215.681 249.244L215.498 251.981C213.705 253.722 210.697 254.18 206.354 253.24L206.631 249.076L215.681 249.244Z" fill="#FF6D6B"/>
<path d="M201.313 238.478C201.348 239.146 201.397 239.826 201.471 240.505C201.961 245.019 204.461 250.027 207.971 251.073C215.549 253.333 219.148 247.503 220.676 243.127C220.845 242.641 220.628 242.056 220.775 241.477C221.123 240.105 221.79 238.564 222.021 237.016C222.181 235.943 222.314 234.883 222.424 233.925C222.73 231.222 221.326 228.626 218.936 227.488C215.493 225.845 210.196 224.372 204.909 227.017C202.956 227.994 201.641 229.955 201.449 232.186C201.304 233.89 201.197 236.123 201.313 238.478Z" fill="#FB9A83"/>
<path d="M210.473 242.556C210.616 242.565 210.75 242.471 210.784 242.326C210.822 242.165 210.723 242.004 210.562 241.965L209.547 241.724L211.213 238.052C211.281 237.901 211.215 237.724 211.064 237.656C210.913 237.588 210.736 237.654 210.668 237.805L208.702 242.139L210.424 242.548C210.44 242.553 210.456 242.555 210.473 242.556Z" fill="#FF6D6B"/>
<path d="M204.778 231.16C201.679 232.331 202.395 235.968 201.259 237.693C201.186 237.805 201.116 237.821 201.048 237.757C200.92 235.356 201.027 233.08 201.176 231.343C201.373 229.069 202.755 227.073 204.811 226.081C210.377 223.398 215.964 224.911 219.597 226.594C222.118 227.759 223.604 230.409 223.288 233.164C223.175 234.141 223.037 235.221 222.871 236.314C222.352 236.578 221.124 236.632 221.019 237.431C220.742 239.544 220.542 240.99 220.107 240.833C219.374 240.568 219.082 237.966 220.047 236.362C220.047 236.362 219.435 235.197 216.704 233.93C213.202 232.305 209.879 230.023 209.879 230.023C209.879 230.023 208.569 229.11 208.105 228.179C208.105 228.179 207.139 230.268 204.778 231.16Z" fill="#021147"/>
<path d="M207.305 237.339C207.261 237.997 206.886 238.509 206.467 238.481C206.048 238.453 205.745 237.896 205.789 237.238C205.833 236.58 206.208 236.069 206.627 236.097C207.045 236.124 207.349 236.681 207.305 237.339Z" fill="#021147"/>
<path d="M215.496 237.887C215.452 238.545 215.077 239.057 214.658 239.029C214.239 239.001 213.936 238.444 213.98 237.786C214.024 237.128 214.399 236.616 214.818 236.644C215.237 236.672 215.54 237.229 215.496 237.887Z" fill="#021147"/>
<path d="M204.714 234.026C205.331 233.948 206.577 233.834 207.886 233.968C208.231 234.003 208.49 234.282 208.424 234.554L208.422 234.561C208.369 234.778 208.124 234.91 207.85 234.871C206.96 234.744 204.619 234.602 203.509 234.853C203.489 234.693 203.606 234.533 203.769 234.397C204.017 234.19 204.354 234.072 204.714 234.026Z" fill="#021147"/>
<path d="M216.89 234.984C216.291 234.816 215.075 234.521 213.761 234.462C213.415 234.446 213.118 234.684 213.143 234.963L213.144 234.97C213.164 235.192 213.387 235.359 213.665 235.36C214.564 235.365 216.9 235.567 217.962 235.979C218.005 235.824 217.913 235.648 217.771 235.489C217.556 235.248 217.24 235.082 216.89 234.984Z" fill="#021147"/>
<path d="M207.04 244.115C207.191 245.178 207.799 247.154 210.28 247.32C212.767 247.486 213.581 245.771 213.902 244.573L207.04 244.115Z" fill="white"/>
<path d="M210.124 249.119C209.408 249.071 208.802 248.644 208.776 248.625C208.644 248.531 208.614 248.347 208.708 248.215C208.802 248.083 208.985 248.053 209.117 248.146C209.122 248.15 209.617 248.496 210.163 248.532C210.754 248.571 211.304 248.294 211.31 248.291C211.455 248.217 211.631 248.274 211.705 248.418C211.779 248.562 211.723 248.738 211.579 248.813C211.551 248.829 210.883 249.17 210.124 249.119Z" fill="#FF6D6B"/>
<path d="M221.109 237.161C221.109 237.161 223.381 234.751 224.498 236.673C225.615 238.595 223.499 243.908 220.552 242.38L221.109 237.161Z" fill="#FB9A83"/>
<path d="M222.453 242.631C222.431 242.963 222.144 243.214 221.812 243.192C221.48 243.17 221.229 242.882 221.251 242.551C221.273 242.219 221.56 241.968 221.892 241.99C222.224 242.011 222.475 242.298 222.453 242.631Z" fill="white"/>
<path d="M221.327 240.746C221.439 240.754 221.547 240.686 221.586 240.575C222.168 238.93 223.951 238.366 223.969 238.36C224.104 238.318 224.181 238.175 224.14 238.039C224.099 237.904 223.955 237.827 223.819 237.868C223.736 237.893 221.772 238.508 221.101 240.403C221.053 240.537 221.124 240.684 221.257 240.731C221.281 240.74 221.304 240.745 221.327 240.746Z" fill="#FF6D6B"/>
<path d="M223.137 240.019C223.185 240.022 223.234 240.012 223.279 239.987C223.403 239.918 223.448 239.762 223.379 239.637C223.367 239.617 223.092 239.127 222.468 238.796C222.343 238.729 222.187 238.777 222.12 238.903C222.054 239.029 222.101 239.184 222.227 239.251C222.709 239.506 222.927 239.883 222.929 239.886C222.973 239.966 223.053 240.013 223.137 240.019Z" fill="#FF6D6B"/>
<path d="M209.062 320.044H169.355C165.521 320.044 162.413 316.936 162.413 313.102V273.395C162.413 269.561 165.521 266.453 169.355 266.453H209.062C212.896 266.453 216.004 269.561 216.004 273.395V313.102C216.004 316.936 212.896 320.044 209.062 320.044Z" fill="#0060E6"/>
<path d="M206.735 320.044H167.029C163.195 320.044 160.087 316.936 160.087 313.102V273.395C160.087 269.561 163.195 266.453 167.029 266.453H206.735C210.569 266.453 213.677 269.561 213.677 273.395V313.102C213.677 316.936 210.569 320.044 206.735 320.044Z" fill="#007EFF"/>
<path d="M202.126 278.787C198.647 275.264 192.947 275.231 189.422 278.713L185.911 282.184C184.795 283.287 185.432 285.191 186.987 285.401C187.003 285.403 187.019 285.405 187.035 285.407C187.615 285.485 188.199 285.29 188.616 284.878L192.107 281.428C194.131 279.424 197.412 279.441 199.414 281.469C201.419 283.498 201.4 286.774 199.372 288.779L192.475 295.598C190.448 297.6 187.172 297.582 185.167 295.553C185.085 295.47 185.006 295.385 184.931 295.298C184.318 294.587 183.303 294.385 182.498 294.869L182.482 294.879L182.444 294.902C181.452 295.498 181.238 296.838 181.983 297.724C182.131 297.9 182.288 298.072 182.452 298.239C185.936 301.761 191.634 301.796 195.156 298.313L202.056 291.496C205.577 288.009 205.609 282.309 202.126 278.787Z" fill="white"/>
<path d="M183.668 303.639L180.652 306.619C178.596 308.65 175.184 308.698 173.187 306.608C171.246 304.577 171.285 301.347 173.291 299.365L180.19 292.544C182.215 290.54 185.493 290.56 187.495 292.587C187.841 292.936 188.127 293.323 188.352 293.735C188.829 294.607 189.922 294.944 190.815 294.505C190.827 294.499 190.839 294.493 190.851 294.487C191.826 294.002 192.203 292.812 191.675 291.86C191.287 291.159 190.798 290.5 190.209 289.903C186.725 286.381 181.028 286.35 177.505 289.829L170.608 296.648C167.086 300.132 167.051 305.83 170.534 309.352C174.016 312.877 179.716 312.909 183.238 309.426L186.355 306.344C187.512 305.2 186.782 303.225 185.158 303.11L185.106 303.106C184.574 303.068 184.049 303.262 183.668 303.639Z" fill="white"/>
<path d="M157.658 283.793C157.658 283.793 160.941 284.084 161.993 285.218C163.045 286.352 158.555 286.658 158.555 286.658C158.555 286.658 163.979 286.328 164.306 287.608C164.632 288.888 159.372 289.359 159.372 289.359C159.372 289.359 163.081 289.695 163.429 290.651C163.777 291.607 159.947 292.109 159.947 292.109C159.947 292.109 162.86 292.673 163.204 293.369C163.548 294.065 160.37 294.871 158.667 294.692C156.965 294.512 157.676 292.326 157.676 292.326C157.676 292.326 156.846 290.47 157.418 289.705C157.418 289.705 156.421 288.076 156.773 287.036C156.773 287.036 155.557 284.319 157.658 283.793Z" fill="#FB9A83"/>
<path d="M194.269 313.986L193.038 314.503C191.938 314.965 190.83 314.668 189.923 313.892C189.522 313.549 188.892 312.878 188.572 312.691C187.674 312.165 185.564 311.536 184.959 311.744C184.354 311.952 184.922 313.001 185.539 313.306C186.156 313.611 187.068 313.947 187.704 314.477C188.34 315.008 185.687 317.738 184.51 318.608C183.333 319.478 180.735 319.741 180.967 320.922C181.199 322.103 182.994 321.539 182.994 321.539C182.994 321.539 182.899 322.731 184.673 322.941C184.673 322.941 184.82 324.008 185.962 324.131C185.962 324.131 186.366 325.39 187.577 325.259C188.787 325.127 192.554 324.692 197.465 317.93L194.269 313.986Z" fill="#FB9A83"/>
<path d="M226.433 259.402C226.433 259.402 229.56 285.813 227.034 295.638C224.507 305.463 197.648 318.938 197.648 318.938L193.681 314.234C193.681 314.234 214.133 299.131 218.729 292.396L219.38 272.003C219.38 272.003 220.171 265.593 226.433 259.402Z" fill="#00A0FF"/>
<path d="M335.881 438.76C335.881 440.972 320.115 442.764 300.666 442.764C281.217 442.764 265.451 440.971 265.451 438.76C265.451 436.549 281.217 434.756 300.666 434.756C320.114 434.756 335.881 436.549 335.881 438.76Z" fill="#D9E4F5"/>
<path d="M329.297 334.627V432.526C329.297 435.969 326.508 438.761 323.065 438.761H278.267C274.824 438.761 272.035 435.969 272.035 432.526V334.627C272.035 331.184 274.824 328.395 278.267 328.395H323.065C326.508 328.394 329.297 331.184 329.297 334.627Z" fill="#3B3E7D"/>
<path d="M329.297 383.482V432.526C329.297 435.969 326.508 438.761 323.065 438.761H278.267C274.824 438.761 272.035 435.969 272.035 432.526V383.482H329.297Z" fill="#18285D"/>
<path d="M324.232 345.328V421.6C324.232 423.052 323.039 424.248 321.581 424.248H279.754C279.198 424.248 278.686 424.072 278.257 423.785C277.559 423.308 277.099 422.502 277.099 421.6V345.328C277.099 343.634 278.471 342.258 280.169 342.258H321.162C322.86 342.258 324.232 343.634 324.232 345.328Z" fill="#F9F9F9"/>
<path d="M324.232 345.328V349.404H277.099V345.328C277.099 343.634 278.471 342.258 280.169 342.258H321.162C322.86 342.258 324.232 343.634 324.232 345.328Z" fill="#D9E4F5"/>
<path d="M313.509 347.037H287.821C287.157 347.037 286.614 346.494 286.614 345.83C286.614 345.166 287.157 344.623 287.821 344.623H313.509C314.173 344.623 314.716 345.166 314.716 345.83C314.716 346.494 314.173 347.037 313.509 347.037Z" fill="#F9F9F9"/>
<path d="M300.665 433.755C302.406 433.755 303.817 432.344 303.817 430.603C303.817 428.862 302.406 427.451 300.665 427.451C298.924 427.451 297.513 428.862 297.513 430.603C297.513 432.344 298.924 433.755 300.665 433.755Z" fill="#586199"/>
<path d="M314.359 337.629H288.41C287.56 337.629 286.865 336.934 286.865 336.084C286.865 335.234 287.56 334.539 288.41 334.539H314.359C315.209 334.539 315.904 335.234 315.904 336.084C315.904 336.933 315.209 337.629 314.359 337.629Z" fill="#586199"/>
<path d="M321.157 357.718V415.516C321.157 417.661 319.418 419.399 317.274 419.399H284.059C281.914 419.399 280.175 417.66 280.175 415.516V357.718C280.175 355.573 281.914 353.834 284.059 353.834H317.274C319.418 353.835 321.157 355.574 321.157 357.718Z" fill="#D9E4F5"/>
<path d="M321.157 357.718V360.296H280.175V357.718C280.175 355.573 281.914 353.834 284.059 353.834H317.274C319.418 353.835 321.157 355.574 321.157 357.718Z" fill="#B4CAE3"/>
<path d="M316.624 376.707H284.709V399.548H316.624V376.707Z" fill="#007EFF"/>
<path d="M316.623 393.503L315.071 390.89L309.931 382.234L299.651 399.547H316.623V393.503Z" fill="#18285D"/>
<path d="M297.524 399.547H284.709L291.116 389.222L297.524 378.896L303.931 389.222L310.339 399.547H297.524Z" fill="#3B3E7D"/>
<path d="M293.369 385.59L297.524 388.7L301.678 385.59L297.524 378.896L293.369 385.59Z" fill="white"/>
<path d="M306.432 388.126L309.931 390.89L313.43 388.126L309.931 382.234L306.432 388.126Z" fill="white"/>
<path d="M315.379 367.449H285.953C285.266 367.449 284.709 366.892 284.709 366.205V366.029C284.709 365.342 285.266 364.785 285.953 364.785H315.379C316.066 364.785 316.624 365.342 316.624 366.029V366.205C316.623 366.892 316.066 367.449 315.379 367.449Z" fill="#B4CAE3"/>
<path d="M315.379 372.094H285.953C285.266 372.094 284.709 371.537 284.709 370.849V370.673C284.709 369.986 285.266 369.428 285.953 369.428H315.379C316.066 369.428 316.624 369.985 316.624 370.673V370.849C316.623 371.537 316.066 372.094 315.379 372.094Z" fill="#B4CAE3"/>
<path d="M315.379 406.477H285.953C285.266 406.477 284.709 405.92 284.709 405.233V405.057C284.709 404.37 285.266 403.812 285.953 403.812H315.379C316.066 403.812 316.624 404.37 316.624 405.057V405.233C316.623 405.92 316.066 406.477 315.379 406.477Z" fill="#B4CAE3"/>
<path d="M315.379 411.121H285.953C285.266 411.121 284.709 410.564 284.709 409.876V409.7C284.709 409.013 285.266 408.455 285.953 408.455H315.379C316.066 408.455 316.624 409.012 316.624 409.7V409.876C316.623 410.564 316.066 411.121 315.379 411.121Z" fill="#B4CAE3"/>
<path d="M72.3261 105.329C72.1501 105.32 71.9751 105.303 71.7991 105.303V111.564H76.9361C75.3651 108.087 73.0641 105.953 72.3261 105.329Z" fill="#007EFF"/>
<path d="M71.7991 124.209H77.6561C78.1391 122.619 78.4031 120.89 78.4381 119.072H71.7991V124.209Z" fill="#007EFF"/>
<path d="M75.066 129.312C75.962 128.153 76.699 126.844 77.253 125.395H71.8V132.28C72.247 132.017 73.652 131.104 75.066 129.312Z" fill="#007EFF"/>
<path d="M74.3901 105.662C75.0491 106.364 75.6721 107.128 76.2431 107.954C77.0331 109.078 77.7011 110.299 78.2281 111.563H82.6101C80.7301 108.604 77.7621 106.479 74.3901 105.662Z" fill="#007EFF"/>
<path d="M83.2862 112.74H78.6672C79.2382 114.409 79.5542 116.139 79.6152 117.886H84.6912C84.5682 116.086 84.0942 114.356 83.2862 112.74Z" fill="#007EFF"/>
<path d="M77.4191 112.74H71.7991V117.886H78.4381C78.3681 116.13 78.0251 114.4 77.4191 112.74Z" fill="#007EFF"/>
<path d="M78.517 125.396C77.902 127.135 77.042 128.707 75.962 130.077C75.417 130.771 74.829 131.403 74.197 131.965C77.929 131.122 81.099 128.76 82.988 125.396H78.517Z" fill="#007EFF"/>
<path d="M84.7172 119.072H79.6242C79.5892 120.872 79.3342 122.602 78.8862 124.209H83.5762C84.2952 122.584 84.6822 120.854 84.7172 119.072Z" fill="#007EFF"/>
<path d="M57.739 117.886H62.947C63.009 116.139 63.325 114.408 63.895 112.74H59.144C58.328 114.356 57.854 116.086 57.739 117.886Z" fill="#007EFF"/>
<path d="M68.4091 131.999C67.7591 131.428 67.1531 130.787 66.6001 130.076C65.5201 128.706 64.6591 127.134 64.0441 125.395H59.4341C61.3401 128.768 64.6511 131.2 68.4091 131.999Z" fill="#007EFF"/>
<path d="M63.6761 124.209C63.2281 122.602 62.9731 120.872 62.9381 119.072H57.7131C57.7481 120.855 58.1261 122.585 58.8461 124.209H63.6761Z" fill="#007EFF"/>
<path d="M67.2682 108.659C66.6362 109.572 66.0832 110.547 65.6262 111.566H70.6232V105.305C70.5002 105.305 70.3682 105.314 70.2452 105.323C69.7352 105.752 68.5062 106.876 67.2682 108.659Z" fill="#007EFF"/>
<path d="M70.622 119.072H64.124C64.159 120.89 64.423 122.62 64.906 124.209H70.623L70.622 119.072Z" fill="#007EFF"/>
<path d="M70.6221 132.201V125.395H65.3091C66.9341 129.628 69.7261 131.639 70.6221 132.201Z" fill="#007EFF"/>
<path d="M68.216 105.619C64.765 106.409 61.735 108.552 59.812 111.564H64.334C64.861 110.299 65.528 109.079 66.319 107.955C66.899 107.121 67.531 106.339 68.216 105.619Z" fill="#007EFF"/>
<path d="M70.622 112.74H65.142C64.536 114.409 64.194 116.13 64.123 117.886H70.621L70.622 112.74Z" fill="#007EFF"/>
<path d="M50.0041 139.309H48.5381C48.1571 139.309 47.8481 139 47.8481 138.619V137.153C47.8481 136.772 48.1571 136.463 48.5381 136.463C48.9191 136.463 49.2281 136.772 49.2281 137.153V137.929H50.0041C50.3851 137.929 50.6941 138.238 50.6941 138.619C50.6941 139 50.3851 139.309 50.0041 139.309Z" fill="#B4CAE3"/>
<path d="M89.6783 139.308H86.7583C86.3773 139.308 86.0683 138.999 86.0683 138.618C86.0683 138.237 86.3773 137.928 86.7583 137.928H89.6783C90.0593 137.928 90.3683 138.237 90.3683 138.618C90.3683 138.999 90.0593 139.308 89.6783 139.308ZM84.0103 139.308H81.0903C80.7093 139.308 80.4003 138.999 80.4003 138.618C80.4003 138.237 80.7093 137.928 81.0903 137.928H84.0103C84.3913 137.928 84.7003 138.237 84.7003 138.618C84.7003 138.999 84.3913 139.308 84.0103 139.308ZM78.3433 139.308H75.4233C75.0423 139.308 74.7333 138.999 74.7333 138.618C74.7333 138.237 75.0423 137.928 75.4233 137.928H78.3433C78.7243 137.928 79.0333 138.237 79.0333 138.618C79.0333 138.999 78.7243 139.308 78.3433 139.308ZM72.6753 139.308H69.7553C69.3743 139.308 69.0653 138.999 69.0653 138.618C69.0653 138.237 69.3743 137.928 69.7553 137.928H72.6753C73.0563 137.928 73.3653 138.237 73.3653 138.618C73.3653 138.999 73.0563 139.308 72.6753 139.308ZM67.0073 139.308H64.0873C63.7063 139.308 63.3973 138.999 63.3973 138.618C63.3973 138.237 63.7063 137.928 64.0873 137.928H67.0073C67.3883 137.928 67.6973 138.237 67.6973 138.618C67.6973 138.999 67.3883 139.308 67.0073 139.308ZM61.3403 139.308H58.4203C58.0393 139.308 57.7303 138.999 57.7303 138.618C57.7303 138.237 58.0393 137.928 58.4203 137.928H61.3403C61.7213 137.928 62.0303 138.237 62.0303 138.618C62.0303 138.999 61.7213 139.308 61.3403 139.308ZM55.6723 139.308H52.7523C52.3713 139.308 52.0623 138.999 52.0623 138.618C52.0623 138.237 52.3713 137.928 52.7523 137.928H55.6723C56.0533 137.928 56.3623 138.237 56.3623 138.618C56.3623 138.999 56.0533 139.308 55.6723 139.308Z" fill="#B4CAE3"/>
<path d="M93.8921 139.309H92.4261C92.0451 139.309 91.7361 139 91.7361 138.619C91.7361 138.238 92.0451 137.929 92.4261 137.929H93.2021V137.153C93.2021 136.772 93.5111 136.463 93.8921 136.463C94.2731 136.463 94.5821 136.772 94.5821 137.153V138.619C94.5821 139 94.2731 139.309 93.8921 139.309Z" fill="#B4CAE3"/>
<path d="M93.8921 135.199C93.5111 135.199 93.2021 134.89 93.2021 134.509V131.702C93.2021 131.321 93.5111 131.012 93.8921 131.012C94.2731 131.012 94.5821 131.321 94.5821 131.702V134.509C94.5821 134.89 94.2731 135.199 93.8921 135.199ZM93.8921 129.749C93.5111 129.749 93.2021 129.44 93.2021 129.059V126.251C93.2021 125.87 93.5111 125.561 93.8921 125.561C94.2731 125.561 94.5821 125.87 94.5821 126.251V129.059C94.5821 129.44 94.2731 129.749 93.8921 129.749ZM93.8921 124.299C93.5111 124.299 93.2021 123.99 93.2021 123.609V120.802C93.2021 120.421 93.5111 120.112 93.8921 120.112C94.2731 120.112 94.5821 120.421 94.5821 120.802V123.609C94.5821 123.991 94.2731 124.299 93.8921 124.299ZM93.8921 118.85C93.5111 118.85 93.2021 118.541 93.2021 118.16V115.352C93.2021 114.971 93.5111 114.662 93.8921 114.662C94.2731 114.662 94.5821 114.971 94.5821 115.352V118.16C94.5821 118.541 94.2731 118.85 93.8921 118.85ZM93.8921 113.4C93.5111 113.4 93.2021 113.091 93.2021 112.71V109.902C93.2021 109.521 93.5111 109.212 93.8921 109.212C94.2731 109.212 94.5821 109.521 94.5821 109.902V112.71C94.5821 113.091 94.2731 113.4 93.8921 113.4ZM93.8921 107.95C93.5111 107.95 93.2021 107.641 93.2021 107.26V104.452C93.2021 104.071 93.5111 103.762 93.8921 103.762C94.2731 103.762 94.5821 104.071 94.5821 104.452V107.26C94.5821 107.641 94.2731 107.95 93.8921 107.95Z" fill="#B4CAE3"/>
<path d="M93.8921 102.5C93.5111 102.5 93.2021 102.191 93.2021 101.81V101.034H92.4261C92.0451 101.034 91.7361 100.725 91.7361 100.344C91.7361 99.9633 92.0451 99.6543 92.4261 99.6543H93.8921C94.2731 99.6543 94.5821 99.9633 94.5821 100.344V101.81C94.5821 102.191 94.2731 102.5 93.8921 102.5Z" fill="#B4CAE3"/>
<path d="M89.6783 101.034H86.7583C86.3773 101.034 86.0683 100.725 86.0683 100.344C86.0683 99.9633 86.3773 99.6543 86.7583 99.6543H89.6783C90.0593 99.6543 90.3683 99.9633 90.3683 100.344C90.3683 100.725 90.0593 101.034 89.6783 101.034ZM84.0103 101.034H81.0903C80.7093 101.034 80.4003 100.725 80.4003 100.344C80.4003 99.9633 80.7093 99.6543 81.0903 99.6543H84.0103C84.3913 99.6543 84.7003 99.9633 84.7003 100.344C84.7003 100.725 84.3913 101.034 84.0103 101.034ZM78.3433 101.034H75.4233C75.0423 101.034 74.7333 100.725 74.7333 100.344C74.7333 99.9633 75.0423 99.6543 75.4233 99.6543H78.3433C78.7243 99.6543 79.0333 99.9633 79.0333 100.344C79.0333 100.725 78.7243 101.034 78.3433 101.034ZM72.6753 101.034H69.7553C69.3743 101.034 69.0653 100.725 69.0653 100.344C69.0653 99.9633 69.3743 99.6543 69.7553 99.6543H72.6753C73.0563 99.6543 73.3653 99.9633 73.3653 100.344C73.3653 100.725 73.0563 101.034 72.6753 101.034ZM67.0073 101.034H64.0873C63.7063 101.034 63.3973 100.725 63.3973 100.344C63.3973 99.9633 63.7063 99.6543 64.0873 99.6543H67.0073C67.3883 99.6543 67.6973 99.9633 67.6973 100.344C67.6973 100.725 67.3883 101.034 67.0073 101.034ZM61.3403 101.034H58.4203C58.0393 101.034 57.7303 100.725 57.7303 100.344C57.7303 99.9633 58.0393 99.6543 58.4203 99.6543H61.3403C61.7213 99.6543 62.0303 99.9633 62.0303 100.344C62.0303 100.725 61.7213 101.034 61.3403 101.034ZM55.6723 101.034H52.7523C52.3713 101.034 52.0623 100.725 52.0623 100.344C52.0623 99.9633 52.3713 99.6543 52.7523 99.6543H55.6723C56.0533 99.6543 56.3623 99.9633 56.3623 100.344C56.3623 100.725 56.0533 101.034 55.6723 101.034Z" fill="#B4CAE3"/>
<path d="M48.5381 102.5C48.1571 102.5 47.8481 102.191 47.8481 101.81V100.344C47.8481 99.9633 48.1571 99.6543 48.5381 99.6543H50.0041C50.3851 99.6543 50.6941 99.9633 50.6941 100.344C50.6941 100.725 50.3851 101.034 50.0041 101.034H49.2281V101.81C49.2281 102.191 48.9191 102.5 48.5381 102.5Z" fill="#B4CAE3"/>
<path d="M48.5381 135.199C48.1571 135.199 47.8481 134.89 47.8481 134.509V131.702C47.8481 131.321 48.1571 131.012 48.5381 131.012C48.9191 131.012 49.2281 131.321 49.2281 131.702V134.509C49.2281 134.89 48.9191 135.199 48.5381 135.199ZM48.5381 129.749C48.1571 129.749 47.8481 129.44 47.8481 129.059V126.251C47.8481 125.87 48.1571 125.561 48.5381 125.561C48.9191 125.561 49.2281 125.87 49.2281 126.251V129.059C49.2281 129.44 48.9191 129.749 48.5381 129.749ZM48.5381 124.299C48.1571 124.299 47.8481 123.99 47.8481 123.609V120.802C47.8481 120.421 48.1571 120.112 48.5381 120.112C48.9191 120.112 49.2281 120.421 49.2281 120.802V123.609C49.2281 123.991 48.9191 124.299 48.5381 124.299ZM48.5381 118.85C48.1571 118.85 47.8481 118.541 47.8481 118.16V115.352C47.8481 114.971 48.1571 114.662 48.5381 114.662C48.9191 114.662 49.2281 114.971 49.2281 115.352V118.16C49.2281 118.541 48.9191 118.85 48.5381 118.85ZM48.5381 113.4C48.1571 113.4 47.8481 113.091 47.8481 112.71V109.902C47.8481 109.521 48.1571 109.212 48.5381 109.212C48.9191 109.212 49.2281 109.521 49.2281 109.902V112.71C49.2281 113.091 48.9191 113.4 48.5381 113.4ZM48.5381 107.95C48.1571 107.95 47.8481 107.641 47.8481 107.26V104.452C47.8481 104.071 48.1571 103.762 48.5381 103.762C48.9191 103.762 49.2281 104.071 49.2281 104.452V107.26C49.2281 107.641 48.9191 107.95 48.5381 107.95Z" fill="#B4CAE3"/>
<path d="M113.448 148.765C113.067 148.765 112.758 148.456 112.758 148.075V145.142C112.758 144.761 113.067 144.452 113.448 144.452C113.829 144.452 114.138 144.761 114.138 145.142V148.075C114.138 148.455 113.829 148.765 113.448 148.765ZM113.448 143.071C113.067 143.071 112.758 142.762 112.758 142.381V139.448C112.758 139.067 113.067 138.758 113.448 138.758C113.829 138.758 114.138 139.067 114.138 139.448V142.381C114.138 142.762 113.829 143.071 113.448 143.071ZM113.448 137.378C113.067 137.378 112.758 137.069 112.758 136.688V133.755C112.758 133.374 113.067 133.065 113.448 133.065C113.829 133.065 114.138 133.374 114.138 133.755V136.688C114.138 137.069 113.829 137.378 113.448 137.378ZM113.448 131.684C113.067 131.684 112.758 131.375 112.758 130.994V128.061C112.758 127.68 113.067 127.371 113.448 127.371C113.829 127.371 114.138 127.68 114.138 128.061V130.994C114.138 131.375 113.829 131.684 113.448 131.684ZM113.448 125.991C113.067 125.991 112.758 125.682 112.758 125.301V122.368C112.758 121.987 113.067 121.678 113.448 121.678C113.829 121.678 114.138 121.987 114.138 122.368V125.301C114.138 125.682 113.829 125.991 113.448 125.991ZM111.08 122.665H108.147C107.766 122.665 107.457 122.356 107.457 121.975C107.457 121.594 107.766 121.285 108.147 121.285H111.08C111.461 121.285 111.77 121.594 111.77 121.975C111.77 122.356 111.461 122.665 111.08 122.665ZM105.387 122.665H102.454C102.073 122.665 101.764 122.356 101.764 121.975C101.764 121.594 102.073 121.285 102.454 121.285H105.387C105.768 121.285 106.077 121.594 106.077 121.975C106.077 122.356 105.768 122.665 105.387 122.665ZM99.6931 122.665H96.7601C96.3791 122.665 96.0701 122.356 96.0701 121.975C96.0701 121.594 96.3791 121.285 96.7601 121.285H99.6931C100.074 121.285 100.383 121.594 100.383 121.975C100.383 122.356 100.074 122.665 99.6931 122.665ZM94.0001 122.665H93.9371C93.5561 122.665 93.2471 122.356 93.2471 121.975C93.2471 121.594 93.5561 121.285 93.9371 121.285H94.0001C94.3811 121.285 94.6901 121.594 94.6901 121.975C94.6901 122.356 94.3811 122.665 94.0001 122.665Z" fill="#B4CAE3"/>
<path d="M476.939 233.998H478.405C478.786 233.998 479.095 233.689 479.095 233.308V231.842C479.095 231.461 478.786 231.152 478.405 231.152C478.024 231.152 477.715 231.461 477.715 231.842V232.618H476.939C476.558 232.618 476.249 232.927 476.249 233.308C476.249 233.688 476.558 233.998 476.939 233.998Z" fill="#B4CAE3"/>
<path d="M436.576 233.307C436.576 232.926 436.885 232.617 437.266 232.617H440.186C440.567 232.617 440.876 232.926 440.876 233.307C440.876 233.688 440.567 233.997 440.186 233.997H437.266C436.885 233.998 436.576 233.688 436.576 233.307ZM442.243 233.307C442.243 232.926 442.552 232.617 442.933 232.617H445.853C446.234 232.617 446.543 232.926 446.543 233.307C446.543 233.688 446.234 233.997 445.853 233.997H442.933C442.552 233.998 442.243 233.688 442.243 233.307ZM447.911 233.307C447.911 232.926 448.22 232.617 448.601 232.617H451.521C451.902 232.617 452.211 232.926 452.211 233.307C452.211 233.688 451.902 233.997 451.521 233.997H448.601C448.22 233.998 447.911 233.688 447.911 233.307ZM453.579 233.307C453.579 232.926 453.888 232.617 454.269 232.617H457.189C457.57 232.617 457.879 232.926 457.879 233.307C457.879 233.688 457.57 233.997 457.189 233.997H454.269C453.888 233.998 453.579 233.688 453.579 233.307ZM459.246 233.307C459.246 232.926 459.555 232.617 459.936 232.617H462.856C463.237 232.617 463.546 232.926 463.546 233.307C463.546 233.688 463.237 233.997 462.856 233.997H459.936C459.555 233.998 459.246 233.688 459.246 233.307ZM464.914 233.307C464.914 232.926 465.223 232.617 465.604 232.617H468.524C468.905 232.617 469.214 232.926 469.214 233.307C469.214 233.688 468.905 233.997 468.524 233.997H465.604C465.223 233.998 464.914 233.688 464.914 233.307ZM470.582 233.307C470.582 232.926 470.891 232.617 471.272 232.617H474.192C474.573 232.617 474.882 232.926 474.882 233.307C474.882 233.688 474.573 233.997 474.192 233.997H471.272C470.891 233.998 470.582 233.688 470.582 233.307Z" fill="#B4CAE3"/>
<path d="M433.051 233.998H434.518C434.899 233.998 435.208 233.689 435.208 233.308C435.208 232.927 434.899 232.618 434.518 232.618H433.742V231.842C433.742 231.461 433.433 231.152 433.052 231.152C432.671 231.152 432.362 231.461 432.362 231.842V233.308C432.361 233.688 432.67 233.998 433.051 233.998Z" fill="#B4CAE3"/>
<path d="M432.361 229.198V226.391C432.361 226.01 432.67 225.701 433.051 225.701C433.432 225.701 433.741 226.01 433.741 226.391V229.198C433.741 229.579 433.432 229.888 433.051 229.888C432.67 229.888 432.361 229.58 432.361 229.198ZM432.361 223.749V220.941C432.361 220.56 432.67 220.251 433.051 220.251C433.432 220.251 433.741 220.56 433.741 220.941V223.749C433.741 224.13 433.432 224.439 433.051 224.439C432.67 224.439 432.361 224.13 432.361 223.749ZM432.361 218.299V215.492C432.361 215.111 432.67 214.802 433.051 214.802C433.432 214.802 433.741 215.111 433.741 215.492V218.299C433.741 218.68 433.432 218.989 433.051 218.989C432.67 218.989 432.361 218.68 432.361 218.299ZM432.361 212.849V210.041C432.361 209.66 432.67 209.351 433.051 209.351C433.432 209.351 433.741 209.66 433.741 210.041V212.849C433.741 213.23 433.432 213.539 433.051 213.539C432.67 213.539 432.361 213.23 432.361 212.849ZM432.361 207.399V204.591C432.361 204.21 432.67 203.901 433.051 203.901C433.432 203.901 433.741 204.21 433.741 204.591V207.399C433.741 207.78 433.432 208.089 433.051 208.089C432.67 208.089 432.361 207.78 432.361 207.399ZM432.361 201.949V199.141C432.361 198.76 432.67 198.451 433.051 198.451C433.432 198.451 433.741 198.76 433.741 199.141V201.949C433.741 202.33 433.432 202.639 433.051 202.639C432.67 202.639 432.361 202.33 432.361 201.949Z" fill="#B4CAE3"/>
<path d="M433.051 197.19C433.432 197.19 433.741 196.881 433.741 196.5V195.724H434.517C434.898 195.724 435.207 195.415 435.207 195.034C435.207 194.653 434.898 194.344 434.517 194.344H433.05C432.669 194.344 432.36 194.653 432.36 195.034V196.5C432.361 196.881 432.67 197.19 433.051 197.19Z" fill="#B4CAE3"/>
<path d="M436.576 195.034C436.576 194.653 436.885 194.344 437.266 194.344H440.186C440.567 194.344 440.876 194.653 440.876 195.034C440.876 195.415 440.567 195.724 440.186 195.724H437.266C436.885 195.724 436.576 195.415 436.576 195.034ZM442.243 195.034C442.243 194.653 442.552 194.344 442.933 194.344H445.853C446.234 194.344 446.543 194.653 446.543 195.034C446.543 195.415 446.234 195.724 445.853 195.724H442.933C442.552 195.724 442.243 195.415 442.243 195.034ZM447.911 195.034C447.911 194.653 448.22 194.344 448.601 194.344H451.521C451.902 194.344 452.211 194.653 452.211 195.034C452.211 195.415 451.902 195.724 451.521 195.724H448.601C448.22 195.724 447.911 195.415 447.911 195.034ZM453.579 195.034C453.579 194.653 453.888 194.344 454.269 194.344H457.189C457.57 194.344 457.879 194.653 457.879 195.034C457.879 195.415 457.57 195.724 457.189 195.724H454.269C453.888 195.724 453.579 195.415 453.579 195.034ZM459.246 195.034C459.246 194.653 459.555 194.344 459.936 194.344H462.856C463.237 194.344 463.546 194.653 463.546 195.034C463.546 195.415 463.237 195.724 462.856 195.724H459.936C459.555 195.724 459.246 195.415 459.246 195.034ZM464.914 195.034C464.914 194.653 465.223 194.344 465.604 194.344H468.524C468.905 194.344 469.214 194.653 469.214 195.034C469.214 195.415 468.905 195.724 468.524 195.724H465.604C465.223 195.724 464.914 195.415 464.914 195.034ZM470.582 195.034C470.582 194.653 470.891 194.344 471.272 194.344H474.192C474.573 194.344 474.882 194.653 474.882 195.034C474.882 195.415 474.573 195.724 474.192 195.724H471.272C470.891 195.724 470.582 195.415 470.582 195.034Z" fill="#B4CAE3"/>
<path d="M478.406 197.19C478.787 197.19 479.096 196.881 479.096 196.5V195.034C479.096 194.653 478.787 194.344 478.406 194.344H476.94C476.559 194.344 476.25 194.653 476.25 195.034C476.25 195.415 476.559 195.724 476.94 195.724H477.716V196.5C477.716 196.881 478.025 197.19 478.406 197.19Z" fill="#B4CAE3"/>
<path d="M477.716 229.198V226.391C477.716 226.01 478.025 225.701 478.406 225.701C478.787 225.701 479.096 226.01 479.096 226.391V229.198C479.096 229.579 478.787 229.888 478.406 229.888C478.025 229.888 477.716 229.58 477.716 229.198ZM477.716 223.749V220.941C477.716 220.56 478.025 220.251 478.406 220.251C478.787 220.251 479.096 220.56 479.096 220.941V223.749C479.096 224.13 478.787 224.439 478.406 224.439C478.025 224.439 477.716 224.13 477.716 223.749ZM477.716 218.299V215.492C477.716 215.111 478.025 214.802 478.406 214.802C478.787 214.802 479.096 215.111 479.096 215.492V218.299C479.096 218.68 478.787 218.989 478.406 218.989C478.025 218.989 477.716 218.68 477.716 218.299ZM477.716 212.849V210.041C477.716 209.66 478.025 209.351 478.406 209.351C478.787 209.351 479.096 209.66 479.096 210.041V212.849C479.096 213.23 478.787 213.539 478.406 213.539C478.025 213.539 477.716 213.23 477.716 212.849ZM477.716 207.399V204.591C477.716 204.21 478.025 203.901 478.406 203.901C478.787 203.901 479.096 204.21 479.096 204.591V207.399C479.096 207.78 478.787 208.089 478.406 208.089C478.025 208.089 477.716 207.78 477.716 207.399ZM477.716 201.949V199.141C477.716 198.76 478.025 198.451 478.406 198.451C478.787 198.451 479.096 198.76 479.096 199.141V201.949C479.096 202.33 478.787 202.639 478.406 202.639C478.025 202.639 477.716 202.33 477.716 201.949Z" fill="#B4CAE3"/>
<path d="M430.184 215.975H427.251C426.87 215.975 426.561 216.284 426.561 216.665C426.561 217.046 426.87 217.355 427.251 217.355H430.184C430.565 217.355 430.874 217.046 430.874 216.665C430.874 216.284 430.565 215.975 430.184 215.975Z" fill="#B4CAE3"/>
<path d="M423.85 215.975H423.151V217.355H423.85C424.231 217.355 424.54 217.046 424.54 216.665C424.54 216.284 424.232 215.975 423.85 215.975Z" fill="#B4CAE3"/>
<path d="M433.007 215.975H432.944C432.563 215.975 432.254 216.284 432.254 216.665C432.254 217.046 432.563 217.355 432.944 217.355H433.007C433.388 217.355 433.697 217.046 433.697 216.665C433.697 216.284 433.388 215.975 433.007 215.975Z" fill="#B4CAE3"/>
<path d="M456.355 222.915C451.432 222.915 447.427 218.91 447.427 213.988C447.427 212.693 447.711 211.467 448.211 210.357L448.583 214.074C448.628 214.519 449.003 214.852 449.441 214.852C449.491 214.852 449.541 214.848 449.592 214.839C450.043 214.764 450.345 214.329 450.299 213.874L449.726 208.141C449.678 207.666 449.249 207.321 448.78 207.367L443.043 207.941C442.632 207.982 442.286 208.299 442.246 208.711C442.191 209.275 442.66 209.714 443.192 209.663L446.123 209.37C445.35 211.076 444.982 213.005 445.171 215.037C445.661 220.312 449.857 224.579 455.123 225.152C456.418 225.293 457.674 225.207 458.858 224.935C459.717 224.737 460.036 223.688 459.438 223.04C459.432 223.034 459.427 223.028 459.421 223.022C459.143 222.721 458.723 222.604 458.323 222.695C457.691 222.838 457.032 222.915 456.355 222.915Z" fill="#007EFF"/>
<path d="M471.097 216.774C470.911 216.238 470.3 216.033 469.837 216.305L466.786 218.109C467.296 216.832 467.585 215.445 467.585 213.988C467.585 207.795 462.547 202.756 456.354 202.756C455.737 202.756 455.133 202.809 454.544 202.908C453.645 203.059 453.293 204.171 453.929 204.825C453.935 204.831 453.941 204.837 453.947 204.844C454.21 205.115 454.589 205.236 454.962 205.175C455.415 205.101 455.88 205.061 456.354 205.061C461.277 205.061 465.281 209.066 465.281 213.989C465.281 215.134 465.059 216.226 464.663 217.232L463.091 214.574C462.841 214.151 462.286 214.019 461.87 214.294C461.479 214.552 461.39 215.092 461.629 215.495L464.551 220.436C464.712 220.708 465 220.86 465.296 220.86C465.445 220.86 465.597 220.821 465.735 220.74L470.697 217.806C471.052 217.595 471.232 217.164 471.097 216.774Z" fill="#007EFF"/>
</g>
<defs>
<clipPath id="clip0_3010_2307">
<rect width="500" height="500" fill="white"/>
</clipPath>
</defs>
</svg>
