<?xml version="1.0" encoding="UTF-8"?>
<svg xmlns="http://www.w3.org/2000/svg" width="60" height="60" viewBox="0 0 60 60" fill="none">
  <path d="M18.998 0.0303349C29.3787 -0.549939 38.6661 7.26372 39.8937 17.5518C40.4953 22.5913 39.1857 27.819 36.1463 31.8844C36.8979 32.4037 38.4621 34.5784 39.1282 34.8816C39.6758 35.1291 40.2617 34.8137 40.7429 34.8328C42.1484 34.8851 43.4458 35.3905 44.5392 36.2565L58.6289 50.3521C63.0511 56.0294 55.8493 63.1513 50.2186 58.4951C45.3866 54.4994 41.0481 48.7054 36.2562 44.5337C35.4523 43.5317 34.8228 42.0418 34.8123 40.7471C34.8089 40.2226 35.121 39.6929 34.8786 39.1248C34.8001 38.9418 32.2507 36.3959 32.0711 36.314C31.9037 36.2373 31.8479 36.2513 31.6823 36.3053C31.255 36.443 30.2157 37.2916 29.6839 37.5791C18.501 43.6223 4.53683 38.0095 0.876635 25.8848C-2.90214 13.361 5.97894 0.758727 18.998 0.0303349ZM18.215 1.46621C5.08089 2.49781 -2.63359 17.2364 3.55334 28.8227C9.74899 40.423 26.0865 42.1324 34.4235 31.8827C44.942 18.9494 34.8106 0.16277 18.215 1.46621ZM37.8204 35.7303C37.8727 35.5403 37.7698 35.5142 37.6931 35.4044C37.1508 34.6185 35.8917 33.796 35.2762 32.9979L32.9936 35.2772L35.5412 37.8179L37.0374 36.1886L37.8221 35.7303H37.8204ZM40.0088 36.2879C36.6137 36.7479 35.053 41.0242 37.3025 43.6206L51.3538 57.6238C55.6906 60.8215 60.9289 55.4892 57.5286 51.192L43.6272 37.3003C42.5687 36.4935 41.3411 36.1067 40.0088 36.2879Z" fill="#3B82F6"></path>
  <path d="M9.67221 30.3393C2.5262 23.2018 4.76172 10.8487 13.9759 6.75369C25.865 1.47023 38.1098 12.938 33.6788 25.1377C30.0744 35.0634 17.1269 37.7853 9.67221 30.3393ZM29.9873 28.8198C30.9864 27.417 31.8984 26.1049 32.4721 24.4529C35.8586 14.7137 27.5111 5.15575 17.432 7.07606C15.1529 7.50996 12.8947 8.67748 11.1963 10.2336L14.5217 13.5567C15.1843 12.3438 15.9777 11.5562 17.1286 10.8156C17.3431 10.6779 17.8157 10.5978 17.9185 10.4305C18.1261 10.089 17.786 9.06433 18.2411 8.79597C18.4103 8.6949 21.0818 8.67922 21.4462 8.72627C21.6293 8.74892 21.7845 8.75589 21.9101 8.91447L22.0879 10.4322C24.2956 11.2007 26.0882 13.6142 26.0498 15.9736C26.0306 17.1254 23.8544 16.8954 23.0017 16.824C21.373 16.688 22.2815 15.7349 21.38 14.7921C19.9483 13.29 17.5419 14.7991 18.2359 16.7612C18.7608 18.2442 20.3843 17.9044 21.6136 18.2111C24.1979 18.8523 25.9539 21.3198 26.0777 23.9354C26.0969 24.3275 25.8231 24.6359 26.0079 25.0349C26.1161 25.2702 29.3438 28.4748 29.6594 28.6926C29.7693 28.7675 29.7954 28.8721 29.9855 28.8198H29.9873ZM20.7225 10.0367L19.4077 10.0942L19.1671 11.4185C17.5663 11.9849 16.0893 12.8997 15.6569 14.651L16.7398 15.7767C17.1914 12.079 22.3129 11.7479 23.2179 15.3689L24.6356 15.3846C24.2101 13.2482 22.8099 12.0946 20.8411 11.3854L20.7208 10.0367H20.7225ZM17.9499 23.5032C18.1557 23.7106 18.0615 24.5958 18.63 25.2371C20.1419 26.9396 22.8622 25.0001 21.5892 22.9334C20.944 21.8844 19.9605 22.1963 18.9945 22.0046C15.5418 21.3215 13.7527 18.408 13.9985 14.996L10.2163 11.2129C1.54794 20.9678 10.5598 35.9573 23.3609 32.8242C25.4151 32.3206 27.1309 31.2088 28.8154 29.9908C28.8677 29.7991 28.7649 29.7747 28.6881 29.6649C27.9714 28.6246 26.3009 27.5303 25.4866 26.4726C25.1151 27.2724 24.5414 28.067 23.8579 28.6264C23.469 28.9435 22.1054 29.536 22.0496 29.6231C21.7863 30.0431 22.5291 31.2193 21.3032 31.4214C20.815 31.5016 18.691 31.4911 18.3249 31.2838C17.7267 30.944 18.086 30.1929 17.9621 29.6249C16.5305 29.0812 15.3569 28.0914 14.6716 26.7183C14.3054 25.9846 13.4318 23.4945 14.649 23.3377C15.1006 23.2802 17.7389 23.2889 17.9534 23.505L17.9499 23.5032ZM19.6763 20.7308L15.3709 16.4284C15.6377 18.7321 17.3675 20.4642 19.6763 20.7308ZM24.6356 23.6025C24.463 21.4453 22.6494 19.5162 20.4592 19.4291L24.6356 23.6025ZM20.7225 29.9943C20.3895 28.25 21.591 28.5323 22.6442 27.8056C23.2162 27.4118 24.2589 26.2722 24.3583 25.5908C24.4141 25.204 23.3103 24.2577 23.2022 24.385C22.7697 28.0809 17.6988 28.2203 16.7886 24.662L15.4999 24.6446C15.6011 26.7653 17.3867 28.0443 19.2229 28.6856L19.2857 29.9925H20.7225V29.9943Z" fill="#3B82F6"></path>
  <path d="M51.8838 50.2426C54.1402 49.8784 57.2738 53.78 54.7506 55.3257C53.1812 56.2858 51.4967 54.9441 50.6335 53.6458C49.7703 52.3476 50.2865 50.5005 51.8838 50.2426ZM52.0076 51.6715C50.8009 52.0496 52.6127 53.9804 53.094 54.186C54.1019 54.6182 54.6285 53.78 54.006 52.8843C53.6171 52.325 52.733 51.4432 52.0076 51.6698V51.6715Z" fill="#3B82F6"></path>
  <path d="M41.057 39.153C42.6368 38.998 44.7869 41.272 44.6108 42.8455C44.4765 44.0392 43.2175 44.778 42.0701 44.5951C41.2436 44.4626 39.6236 42.8874 39.3237 42.1241C38.8075 40.8067 39.6428 39.2924 41.057 39.153ZM41.0483 40.5819C39.5556 41.0071 41.9219 43.3753 42.5549 43.2777C42.8426 43.2341 43.2367 42.8438 43.282 42.551C43.3657 42.0021 41.7405 40.385 41.0483 40.5819Z" fill="#3B82F6"></path>
  <path d="M46.2685 44.7638C47.6705 44.5041 48.6889 45.3946 49.5033 46.4279C51.1006 48.4545 49.3254 50.8959 47.1247 49.9775C46.619 49.7667 45.1822 48.3552 44.9468 47.8499C44.3957 46.6614 44.87 45.0217 46.2685 44.7638ZM46.6626 46.0585C44.9537 46.367 47.4177 49.1481 48.3907 48.7107C49.6689 48.1357 47.4003 45.9261 46.6626 46.0585Z" fill="#3B82F6"></path>
</svg>
