<?xml version="1.0" encoding="UTF-8"?>
<svg xmlns="http://www.w3.org/2000/svg" width="52" height="56" viewBox="0 0 52 56" fill="none">
  <mask id="mask0_15067_464" style="mask-type:luminance" maskUnits="userSpaceOnUse" x="0" y="0" width="52" height="56">
    <path d="M51.96 0H0V55.48H51.96V0Z" fill="#ffffff"></path>
  </mask>
  <g mask="url(#mask0_15067_464)">
    <path d="M21.0707 25.5104C21.9707 26.3204 23.3007 28.1704 24.2507 28.7604C25.4407 29.5004 26.4307 27.7404 27.1407 27.0304C29.6907 24.4504 32.3007 21.9104 34.7907 19.2804C37.6707 16.6304 42.6607 21.8304 40.0707 24.6604L26.6807 38.2604C25.5507 39.1004 24.2107 39.1304 23.0807 38.2604C20.4607 36.2504 18.0407 32.7604 15.4907 30.5604C14.6307 29.4504 14.6307 27.9604 15.4907 26.8504C16.9107 25.0004 18.9907 23.6204 21.0707 25.5104ZM36.5007 20.4004C36.2707 20.4504 36.1707 20.6004 36.0107 20.7204C32.7807 23.2404 29.9207 27.4904 26.6807 30.1604C23.4507 32.4804 21.7607 28.2304 19.6607 26.7404C18.6507 26.0304 17.7807 26.9304 17.1707 27.7304C16.5007 28.6104 16.5607 28.9104 17.2207 29.7504C19.0707 32.1004 22.1007 34.2204 24.0007 36.6404C24.3207 36.9004 24.7407 37.1504 25.1707 36.9904C29.8707 32.5404 34.3107 27.8304 38.8307 23.2004C39.5807 22.4304 37.4407 20.4504 36.9207 20.3804C36.7707 20.3604 36.6407 20.3704 36.4907 20.4004H36.5007Z" fill="#3B82F6"></path>
    <path d="M25.4912 0.0403583C25.8212 -0.00964168 26.1512 -0.0196417 26.4812 0.0403583C27.4612 0.210358 30.6112 2.66036 31.7512 3.35036C36.4412 6.18036 41.2112 7.99036 46.5312 9.31036C49.5612 10.0604 51.0612 9.49036 51.5912 13.1604C52.5512 19.7604 51.6712 30.6904 48.5012 36.6604C48.1812 37.2604 47.7712 37.8204 47.0212 37.4004C46.0112 36.8304 47.3712 34.5904 47.6712 33.7504C49.8412 27.5504 50.5612 20.9804 49.8712 14.4204C49.8212 13.9504 49.6512 12.3504 49.4612 12.0504C49.3012 11.8004 48.9912 11.7204 48.7212 11.6404C47.5912 11.3004 46.1712 11.1604 44.9812 10.8604C39.3712 9.43036 34.0512 7.04036 29.2012 3.93036C28.6512 3.58036 26.6412 1.98036 26.2512 1.89036C26.0112 1.84036 25.7712 1.85036 25.5512 1.96036C24.5812 2.70036 23.5912 3.41036 22.5712 4.07036C21.9112 4.50036 20.2412 5.64036 19.6112 5.85036C18.5412 6.21036 17.8112 5.15036 18.5712 4.35036C18.9912 3.90036 20.6512 3.11036 21.3012 2.68036C22.2412 2.06036 24.5812 0.190358 25.5012 0.0403583H25.4912Z" fill="#3B82F6"></path>
    <path d="M13.6595 1.89025C14.0895 1.80025 14.5695 1.93025 14.7595 2.36025C15.0595 3.01025 15.1995 4.55025 15.4395 5.39025C16.6395 9.49025 18.9395 9.45025 22.6995 10.2902C23.3695 10.5902 23.3695 11.6602 22.6995 11.9602C22.0295 12.2602 20.4995 12.3902 19.6695 12.6402C15.5595 13.8302 15.5995 16.1302 14.7595 19.8902C14.4595 20.5602 13.3895 20.5602 13.0795 19.8902C12.7695 19.2202 12.6495 17.7002 12.3995 16.8602C11.6195 14.1902 10.7895 13.3602 8.08945 12.5902C7.27945 12.3602 5.78945 12.2502 5.12945 11.9602C4.45945 11.6602 4.45945 10.5902 5.12945 10.2902C5.79945 9.99025 7.20945 9.90025 7.99945 9.68025C12.1995 8.51025 12.2395 6.20025 13.0695 2.36025C13.1695 2.14025 13.4095 1.94025 13.6395 1.89025H13.6595ZM14.0395 6.96025C13.7395 6.91025 13.8595 6.98025 13.7995 7.12025C13.5595 7.65025 13.4895 8.01025 13.1395 8.55025C12.3995 9.68025 11.1095 10.7702 9.74945 11.0102C9.69945 11.3102 9.76945 11.1902 9.90945 11.2502C10.4395 11.4902 10.7995 11.5602 11.3395 11.9102C12.4695 12.6402 13.5595 13.9402 13.8095 15.2902C14.1095 15.3402 13.9895 15.2702 14.0495 15.1302C14.2895 14.6002 14.3595 14.2402 14.7095 13.7002C15.4495 12.5702 16.7395 11.4802 18.0995 11.2402C18.1495 10.9402 18.0795 11.0602 17.9395 11.0002C17.4095 10.7602 17.0495 10.6902 16.5095 10.3402C15.3795 9.61025 14.2895 8.31025 14.0395 6.96025Z" fill="#3B82F6"></path>
    <path d="M42.4098 35.2106C42.8398 35.1206 43.3198 35.2506 43.5098 35.6806C43.8898 36.5106 43.9998 38.3106 44.3598 39.3506C45.0898 41.4906 46.0297 42.2006 48.1497 42.8606C49.0697 43.1506 50.7298 43.2906 51.4498 43.6106C52.1198 43.9106 52.1198 44.9806 51.4498 45.2806C50.7798 45.5806 49.2498 45.7106 48.4198 45.9606C46.1198 46.6306 45.1097 47.2906 44.3298 49.6306C43.9897 50.6506 43.8798 52.4006 43.5098 53.2106C43.2098 53.8806 42.1398 53.8806 41.8298 53.2106C41.5197 52.5406 41.3997 51.0206 41.1498 50.1806C40.3698 47.4906 39.4598 46.6406 36.7598 45.8906C35.9698 45.6706 34.5298 45.5706 33.8898 45.2806C33.2498 44.9906 33.2198 43.9106 33.8898 43.6106C34.5598 43.3106 36.0898 43.1806 36.9198 42.9306C41.0298 41.7406 40.9897 39.4406 41.8298 35.6806C41.9298 35.4606 42.1698 35.2606 42.3997 35.2106H42.4098ZM42.7898 40.2806C42.4898 40.2306 42.6098 40.3006 42.5498 40.4406C42.3098 40.9706 42.2398 41.3306 41.8898 41.8706C41.1498 43.0006 39.8598 44.0906 38.4998 44.3306C38.4498 44.6306 38.5198 44.5106 38.6598 44.5706C39.1898 44.8106 39.5498 44.8806 40.0898 45.2306C41.2198 45.9606 42.3098 47.2606 42.5598 48.6106C42.8598 48.6606 42.7398 48.5906 42.7998 48.4506C43.0398 47.9206 43.1098 47.5606 43.4598 47.0206C44.1998 45.8906 45.4898 44.8006 46.8498 44.5606C46.8998 44.2606 46.8298 44.3806 46.6898 44.3206C46.1598 44.0806 45.7998 44.0106 45.2598 43.6606C44.1298 42.9306 43.0398 41.6306 42.7898 40.2806Z" fill="#3B82F6"></path>
    <path d="M30.8096 47.1903C30.5096 47.4603 28.6596 48.2503 28.1796 48.4403C26.5096 49.0903 26.2096 49.2903 24.4396 48.7003C17.5696 46.3903 11.5396 40.5003 8.59958 33.9603C6.49958 29.2903 5.09958 22.0703 5.56958 16.9703C5.63958 16.2503 5.89958 15.0203 6.86958 15.1903C8.01958 15.3903 7.45958 16.5503 7.41958 17.1903C6.49958 29.3003 12.5396 41.9403 24.1196 46.5803C24.4896 46.7303 25.6096 47.2203 25.9096 47.2203C26.3396 47.2203 27.5696 46.6503 28.0496 46.4603C28.6696 46.2203 29.8096 45.4803 30.4296 45.6003C31.0696 45.7203 31.2996 46.7403 30.7996 47.1803L30.8096 47.1903Z" fill="#3B82F6"></path>
    <path d="M1.26032 12.0705C2.29032 11.9705 2.24032 13.0105 2.22032 13.7205C2.13032 16.2205 1.77032 18.5405 1.87032 21.1305C2.13032 27.8905 3.97032 34.6205 7.53032 40.3605C7.61032 41.6505 6.51032 41.9305 5.72032 40.8905C2.19032 36.2305 0.430324 27.5605 0.130324 21.8205C0.000324219 19.2905 -0.159676 15.5105 0.390324 13.0505C0.500324 12.5705 0.710324 12.1205 1.26032 12.0605V12.0705Z" fill="#3B82F6"></path>
    <path d="M12.271 46.6703C12.411 46.6303 12.551 46.6303 12.701 46.6503C13.161 46.7103 15.371 48.6303 15.981 49.0603C17.861 50.3703 20.151 51.6203 22.281 52.4903C23.031 52.7903 25.131 53.6403 25.831 53.7003C26.341 53.7503 28.021 53.1103 28.601 52.9003C30.331 52.2703 32.121 51.4003 33.721 50.4903C34.261 50.1803 35.881 48.9603 36.281 48.8703C37.161 48.6703 37.641 49.1903 37.471 50.0603C37.401 50.4503 36.111 51.1903 35.721 51.4403C33.701 52.7303 31.291 53.9103 29.031 54.7203C26.231 55.7203 25.841 55.7403 23.031 54.7503C19.671 53.5703 15.811 51.4703 13.071 49.1903C12.671 48.8603 11.751 48.1803 11.671 47.7003C11.611 47.3503 11.951 46.7703 12.281 46.6803L12.271 46.6703Z" fill="#3B82F6"></path>
    <path d="M44.1 14.7403C45.35 13.6803 46.31 16.0803 46.39 17.0703C46.68 20.7403 46.03 25.5203 45.08 29.0803C44.9 29.7703 44.44 31.5203 44.12 32.0503C43.67 32.7803 42.41 32.4103 42.44 31.5403C43.33 28.5503 44.15 25.5203 44.42 22.4003C44.52 21.2203 44.76 17.4403 44.39 16.5303C44.19 16.0303 43.33 15.4003 44.11 14.7403H44.1Z" fill="#3B82F6"></path>
    <path d="M24.6204 6.87066C24.9804 6.52066 25.9904 6.44066 26.4704 6.52066C27.4104 6.68066 30.2204 8.64066 31.3104 9.21066C32.7404 9.97066 34.2304 10.6307 35.7104 11.2907C36.5004 12.1407 35.9704 13.1707 34.7804 12.9107C33.8904 12.7107 31.7504 11.5307 30.8404 11.0607C29.2604 10.2407 27.7504 9.29066 26.2304 8.36066C25.7404 8.23066 25.3904 8.60066 24.8404 8.36066C24.2904 8.13066 24.2004 7.26066 24.6104 6.86066L24.6204 6.87066Z" fill="#3B82F6"></path>
    <path d="M38.9304 12.7704C39.3904 12.6704 40.7204 13.0604 41.1104 13.3204C41.9304 13.8704 41.4704 15.0904 40.5404 15.0504C40.2904 15.0504 38.8804 14.5304 38.6704 14.3604C38.0704 13.8904 38.2004 12.9204 38.9304 12.7604V12.7704Z" fill="#3B82F6"></path>
    <path d="M8.68052 42.9704C8.92052 42.9204 9.18052 42.9004 9.41052 43.0104C9.60052 43.1004 10.5005 44.1304 10.6205 44.3504C11.0605 45.2404 10.2705 46.0604 9.42052 45.6704C8.73052 45.3604 7.24052 43.3104 8.69052 42.9804L8.68052 42.9704Z" fill="#3B82F6"></path>
  </g>
</svg>
