<svg xmlns="http://www.w3.org/2000/svg" width="2500" height="2500" viewBox="0 0 192.756 192.756"><g fill-rule="evenodd" clip-rule="evenodd"><path fill="#0c0e0f" d="M37.096 63.955l54.36 54.574-5.351 5.35-54.36-54.574 5.351-5.35z"/><path fill="#9a9fa2" d="M37.31 60.745l54.146 54.146-5.351 5.564-54.146-54.36 5.351-5.35z"/><path fill="#0c0e0f" d="M54.217 46.833l54.361 54.575-5.351 5.35-54.36-54.574 5.35-5.351z"/><path fill="#9a9fa2" d="M54.431 43.623l54.147 54.147-5.351 5.564-54.146-54.36 5.35-5.351z"/><path fill="#0c0e0f" d="M71.338 29.926l54.359 54.361-5.349 5.349-54.36-54.36 5.35-5.35z"/><path fill="#9a9fa2" d="M71.552 26.502l54.145 54.36-5.349 5.35-54.36-54.36 5.564-5.35z"/><path fill="#0c0e0f" d="M88.246 12.805l54.574 54.574-5.351 5.35-54.574-54.574 5.351-5.35z"/><path fill="#9a9fa2" d="M88.674 9.595l54.146 54.146-5.351 5.564-54.36-54.36 5.565-5.35z"/><path fill="#0c0e0f" d="M105.795 13.447l54.359 54.36-5.349 5.351-54.36-54.361 5.35-5.35z"/><path fill="#848cbe" d="M106.01 10.022l54.144 54.36-5.349 5.351-54.36-54.146 5.565-5.565z"/><path fill="#0c0e0f" d="M88.674 30.354l54.574 54.574-5.352 5.351-54.573-54.574 5.351-5.351z"/><path fill="#848cbe" d="M88.887 27.144l54.361 54.146-5.564 5.564-54.147-54.36 5.35-5.35z"/><path fill="#0c0e0f" d="M71.766 47.475l54.361 54.361-5.352 5.35-54.359-54.36 5.35-5.351z"/><path fill="#848cbe" d="M71.98 44.051l54.147 54.361-5.352 5.35-54.359-54.146 5.564-5.565z"/><path fill="#0c0e0f" d="M54.645 64.382l54.574 54.575-5.35 5.35-54.574-54.574 5.35-5.351z"/><path fill="#848cbe" d="M54.859 61.172l54.36 54.146-5.565 5.565-54.145-54.36 5.35-5.351zM15.694 130.729h161.368v30.388H15.694v-30.388z"/><path fill="#9a9fa2" d="M15.694 179.523h161.368v3.639H15.694v-3.639z"/><path d="M37.096 155.34h3.21c-.642-.643-.642-3.639-.642-9.203 0-5.35 0-8.346.642-8.988h-3.852c.642.643.642 3.639.642 8.988 0 5.564-.856 8.133-4.708 8.133-3.853 0-4.281-2.568-4.281-7.277 0-5.992 0-9.201.642-9.844h-3.852c.642.643.642 3.639.642 8.988v3.424c0 4.281 1.712 6.207 5.779 6.207 2.782 0 4.708-1.07 5.992-2.996l-.214 2.568zM51.863 139.289c5.351 8.133 9.203 13.268 10.915 16.264h1.926v-9.416c0-5.564 0-8.346.642-8.988h-2.568c.642.855.642 2.996.642 7.062v7.918c-3.424-4.707-6.207-9.201-8.775-12.84-1.07-1.713-1.284-2.141-2.14-2.141h-2.996c1.069.643 1.069 2.996 1.069 7.49 0 6.207-.428 9.844-1.069 10.701h3.209c-.642-1.07-.856-3.424-.856-6.85v-9.2h.001zM74.976 155.34h3.853c-.642-.643-.855-3.211-.855-7.918v-2.355c0-4.709.214-7.275.855-7.918h-3.853c.643.643.643 3.639.643 8.773v1.07c0 4.924 0 7.705-.643 8.348zM92.312 155.34h3.853c-.643-.643-.643-3.639-.643-8.775 0-2.354 0-4.922.214-7.918h3.424c1.498 0 2.355-.428 2.996-1.498H87.817l-.856 2.141c1.07-.643 1.926-.643 2.996-.643h2.997v8.775c.001 4.707.001 7.275-.642 7.918zM109.861 155.34h2.354c2.354 0 4.281.213 5.779.213 1.283 0 2.141-.213 2.996-.428l.428-2.781c-1.283 1.711-3.211 1.926-6.42 1.926h-1.713c-.213-.855-.213-2.783-.213-5.992v-1.713h.641c2.996 0 5.137-.213 6.422-1.711-1.5.213-2.996.213-4.924.213h-2.139v-.855c0-3.211 0-5.137.213-5.992h1.713c2.996 0 4.494 0 5.137 1.498l-.215-2.568c-.643 0-.857-.215-1.07-.215-1.498 0-3.852.215-7.277.215h-1.711c.643.643.643 3.639.643 8.773v1.07c-.001 4.923-.001 7.704-.644 8.347zM143.463 137.148c-1.285 0-2.783-.428-4.281-.428-5.992 0-9.631 3.852-9.631 9.631 0 5.564 3.639 9.416 8.561 9.416 3.424 0 5.777-1.713 6.42-4.494-1.283 1.498-2.996 2.354-5.135 2.354-4.068 0-7.062-2.996-7.062-7.918s2.566-7.705 6.633-7.705c2.141 0 3.639 1.07 4.281 2.996l.214-3.852zM164.863 145.066h-8.348v-.855c0-4.066 0-6.207.643-7.062h-3.852c.643.643.643 3.639.643 8.773v1.07c0 4.924 0 7.705-.643 8.348h3.852c-.643-.643-.643-2.996-.643-7.062v-2.141h8.348v2.141c0 4.066 0 6.42-.643 7.062h3.854c-.643-.643-.643-3.211-.643-7.918v-2.355c0-4.709 0-7.275.643-7.918h-3.854c.643.855.643 2.996.643 7.062v.855z" fill="#0c0e0f"/></g></svg>
